<?xml version="1.0" standalone="yes"?>

<svg version="1.1" viewBox="0.0 0.0 958.0 411.0" fill="none" stroke="none" stroke-linecap="square" stroke-miterlimit="10" xmlns="http://www.w3.org/2000/svg" xmlns:xlink="http://www.w3.org/1999/xlink"><clipPath id="p.0"><path d="m0 0l958.0 0l0 411.0l-958.0 0l0 -411.0z" clip-rule="nonzero"></path></clipPath><g clip-path="url(#p.0)"><path fill="#000000" fill-opacity="0.0" d="m0 0l958.54333 0l0 411.5538l-958.54333 0z" fill-rule="nonzero"></path><path fill="#cfe2f3" d="m29.47769 194.65617l298.17322 0l0 181.95274l-298.17322 0z" fill-rule="nonzero"></path><path stroke="#000000" stroke-width="2.0" stroke-linejoin="round" stroke-linecap="butt" d="m29.47769 194.65617l298.17322 0l0 181.95274l-298.17322 0z" fill-rule="nonzero"></path><path fill="#000000" d="m109.52099 363.52893l0 -13.59375l4.6875 0q1.578125 0 2.421875 0.1875q1.15625 0.265625 1.984375 0.96875q1.078125 0.921875 1.609375 2.34375q0.53125 1.40625 0.53125 3.21875q0 1.546875 -0.359375 2.75q-0.359375 1.1875 -0.921875 1.984375q-0.5625 0.78125 -1.234375 1.234375q-0.671875 0.4375 -1.625 0.671875q-0.953125 0.234375 -2.1875 0.234375l-4.90625 0zm1.796875 -1.609375l2.90625 0q1.34375 0 2.109375 -0.25q0.765625 -0.25 1.21875 -0.703125q0.640625 -0.640625 1.0 -1.71875q0.359375 -1.078125 0.359375 -2.625q0 -2.125 -0.703125 -3.265625q-0.703125 -1.15625 -1.703125 -1.546875q-0.71875 -0.28125 -2.328125 -0.28125l-2.859375 0l0 10.390625zm10.832321 -3.3125q0 -2.734375 1.53125 -4.0625q1.265625 -1.09375 3.09375 -1.09375q2.0312424 0 3.3124924 1.34375q1.296875 1.328125 1.296875 3.671875q0 1.90625 -0.578125 3.0q-0.5625 1.078125 -1.65625 1.6875q-1.078125 0.59375 -2.3749924 0.59375q-2.0625 0 -3.34375 -1.328125q-1.28125 -1.328125 -1.28125 -3.8125zm1.71875 0q0 1.890625 0.828125 2.828125q0.828125 0.9375 2.078125 0.9375q1.2499924 0 2.0624924 -0.9375q0.828125 -0.953125 0.828125 -2.890625q0 -1.828125 -0.828125 -2.765625q-0.828125 -0.9375 -2.0624924 -0.9375q-1.25 0 -2.078125 0.9375q-0.828125 0.9375 -0.828125 2.828125zm15.71946 1.3125l1.640625 0.21875q-0.265625 1.6875 -1.375 2.65625q-1.109375 0.953125 -2.734375 0.953125q-2.015625 0 -3.25 -1.3125q-1.21875 -1.328125 -1.21875 -3.796875q0 -1.59375 0.515625 -2.78125q0.53125 -1.203125 1.609375 -1.796875q1.09375 -0.609375 2.359375 -0.609375q1.609375 0 2.625 0.8125q1.015625 0.8125 1.3125 2.3125l-1.625 0.25q-0.234375 -1.0 -0.828125 -1.5q-0.59375 -0.5 -1.421875 -0.5q-1.265625 0 -2.0625 0.90625q-0.78125 0.90625 -0.78125 2.859375q0 1.984375 0.765625 2.890625q0.765625 0.890625 1.984375 0.890625q0.984375 0 1.640625 -0.59375q0.65625 -0.609375 0.84375 -1.859375zm2.90625 3.609375l0 -13.59375l1.671875 0l0 7.75l3.953125 -4.015625l2.15625 0l-3.765625 3.65625l4.140625 6.203125l-2.0625 0l-3.25 -5.03125l-1.171875 1.125l0 3.90625l-1.671875 0zm16.062515 -3.171875l1.71875 0.21875q-0.40625 1.5 -1.515625 2.34375q-1.09375 0.828125 -2.8125153 0.828125q-2.15625 0 -3.421875 -1.328125q-1.265625 -1.328125 -1.265625 -3.734375q0 -2.484375 1.265625 -3.859375q1.28125 -1.375 3.328125 -1.375q1.9843903 0 3.2343903 1.34375q1.25 1.34375 1.25 3.796875q0 0.140625 -0.015625 0.4375l-7.3437653 0q0.09375 1.625 0.921875 2.484375q0.828125 0.859375 2.0625 0.859375q0.90625 0 1.5468903 -0.46875q0.65625 -0.484375 1.046875 -1.546875zm-5.4843903 -2.703125l5.5000153 0q-0.109375 -1.234375 -0.625 -1.859375q-0.79689026 -0.96875 -2.0781403 -0.96875q-1.140625 0 -1.9375 0.78125q-0.78125 0.765625 -0.859375 2.046875zm9.094467 5.875l0 -9.859375l1.5 0l0 1.5q0.578125 -1.046875 1.0625 -1.375q0.484375 -0.34375 1.078125 -0.34375q0.84375 0 1.71875 0.546875l-0.578125 1.546875q-0.609375 -0.359375 -1.234375 -0.359375q-0.546875 0 -0.984375 0.328125q-0.421875 0.328125 -0.609375 0.90625q-0.28125 0.890625 -0.28125 1.953125l0 5.15625l-1.671875 0zm17.849121 -3.609375l1.640625 0.21875q-0.265625 1.6875 -1.375 2.65625q-1.109375 0.953125 -2.734375 0.953125q-2.015625 0 -3.25 -1.3125q-1.21875 -1.328125 -1.21875 -3.796875q0 -1.59375 0.515625 -2.78125q0.53125 -1.203125 1.609375 -1.796875q1.09375 -0.609375 2.359375 -0.609375q1.609375 0 2.625 0.8125q1.015625 0.8125 1.3125 2.3125l-1.625 0.25q-0.234375 -1.0 -0.828125 -1.5q-0.59375 -0.5 -1.421875 -0.5q-1.265625 0 -2.0625 0.90625q-0.78125 0.90625 -0.78125 2.859375q0 1.984375 0.765625 2.890625q0.765625 0.890625 1.984375 0.890625q0.984375 0 1.640625 -0.59375q0.65625 -0.609375 0.84375 -1.859375zm2.265625 -1.3125q0 -2.734375 1.53125 -4.0625q1.265625 -1.09375 3.09375 -1.09375q2.03125 0 3.3125 1.34375q1.296875 1.328125 1.296875 3.671875q0 1.90625 -0.578125 3.0q-0.5625 1.078125 -1.65625 1.6875q-1.078125 0.59375 -2.375 0.59375q-2.0625 0 -3.34375 -1.328125q-1.28125 -1.328125 -1.28125 -3.8125zm1.71875 0q0 1.890625 0.828125 2.828125q0.828125 0.9375 2.078125 0.9375q1.25 0 2.0625 -0.9375q0.828125 -0.953125 0.828125 -2.890625q0 -1.828125 -0.828125 -2.765625q-0.828125 -0.9375 -2.0625 -0.9375q-1.25 0 -2.078125 0.9375q-0.828125 0.9375 -0.828125 2.828125zm9.281952 4.921875l0 -9.859375l1.5 0l0 1.40625q1.09375 -1.625 3.140625 -1.625q0.890625 0 1.640625 0.328125q0.75 0.3125 1.109375 0.84375q0.375 0.515625 0.53125 1.21875q0.09375 0.46875 0.09375 1.625l0 6.0625l-1.671875 0l0 -6.0q0 -1.015625 -0.203125 -1.515625q-0.1875 -0.515625 -0.6875 -0.8125q-0.5 -0.296875 -1.171875 -0.296875q-1.0625 0 -1.84375 0.671875q-0.765625 0.671875 -0.765625 2.578125l0 5.375l-1.671875 0zm14.031982 -1.5l0.234375 1.484375q-0.703125 0.140625 -1.265625 0.140625q-0.90625 0 -1.40625 -0.28125q-0.5 -0.296875 -0.703125 -0.75q-0.203125 -0.46875 -0.203125 -1.984375l0 -5.65625l-1.234375 0l0 -1.3125l1.234375 0l0 -2.4375l1.65625 -1.0l0 3.4375l1.6875 0l0 1.3125l-1.6875 0l0 5.75q0 0.71875 0.078125 0.921875q0.09375 0.203125 0.296875 0.328125q0.203125 0.125 0.578125 0.125q0.265625 0 0.734375 -0.078125zm7.9645386 0.28125q-0.9375 0.796875 -1.796875 1.125q-0.859375 0.3125 -1.84375 0.3125q-1.609375 0 -2.484375 -0.78125q-0.875 -0.796875 -0.875 -2.03125q0 -0.734375 0.328125 -1.328125q0.328125 -0.59375 0.859375 -0.953125q0.53125 -0.359375 1.203125 -0.546875q0.5 -0.140625 1.484375 -0.25q2.03125 -0.25 2.984375 -0.578125q0 -0.34375 0 -0.4375q0 -1.015625 -0.46875 -1.4375q-0.640625 -0.5625 -1.90625 -0.5625q-1.171875 0 -1.734375 0.40625q-0.5625 0.40625 -0.828125 1.46875l-1.640625 -0.234375q0.234375 -1.046875 0.734375 -1.6875q0.515625 -0.640625 1.46875 -0.984375q0.96875 -0.359375 2.25 -0.359375q1.265625 0 2.046875 0.296875q0.78125 0.296875 1.15625 0.75q0.375 0.453125 0.515625 1.140625q0.09375 0.421875 0.09375 1.53125l0 2.234375q0 2.328125 0.09375 2.953125q0.109375 0.609375 0.4375 1.171875l-1.75 0q-0.265625 -0.515625 -0.328125 -1.21875zm-0.140625 -3.71875q-0.90625 0.359375 -2.734375 0.625q-1.03125 0.140625 -1.453125 0.328125q-0.421875 0.1875 -0.65625 0.546875q-0.234375 0.359375 -0.234375 0.796875q0 0.671875 0.5 1.125q0.515625 0.4375 1.484375 0.4375q0.96875 0 1.71875 -0.421875q0.75 -0.4375 1.109375 -1.15625q0.265625 -0.578125 0.265625 -1.671875l0 -0.609375zm4.0944824 -6.75l0 -1.90625l1.671875 0l0 1.90625l-1.671875 0zm0 11.6875l0 -9.859375l1.671875 0l0 9.859375l-1.671875 0zm4.129181 0l0 -9.859375l1.5 0l0 1.40625q1.09375 -1.625 3.140625 -1.625q0.890625 0 1.640625 0.328125q0.75 0.3125 1.109375 0.84375q0.375 0.515625 0.53125 1.21875q0.09375 0.46875 0.09375 1.625l0 6.0625l-1.671875 0l0 -6.0q0 -1.015625 -0.203125 -1.515625q-0.1875 -0.515625 -0.6875 -0.8125q-0.5 -0.296875 -1.171875 -0.296875q-1.0625 0 -1.84375 0.671875q-0.765625 0.671875 -0.765625 2.578125l0 5.375l-1.671875 0zm17.125732 -3.171875l1.71875 0.21875q-0.40625 1.5 -1.515625 2.34375q-1.09375 0.828125 -2.8125 0.828125q-2.15625 0 -3.421875 -1.328125q-1.265625 -1.328125 -1.265625 -3.734375q0 -2.484375 1.265625 -3.859375q1.28125 -1.375 3.328125 -1.375q1.984375 0 3.234375 1.34375q1.25 1.34375 1.25 3.796875q0 0.140625 -0.015625 0.4375l-7.34375 0q0.09375 1.625 0.921875 2.484375q0.828125 0.859375 2.0625 0.859375q0.90625 0 1.546875 -0.46875q0.65625 -0.484375 1.046875 -1.546875zm-5.484375 -2.703125l5.5 0q-0.109375 -1.234375 -0.625 -1.859375q-0.796875 -0.96875 -2.078125 -0.96875q-1.140625 0 -1.9375 0.78125q-0.78125 0.765625 -0.859375 2.046875zm9.094452 5.875l0 -9.859375l1.5 0l0 1.5q0.578125 -1.046875 1.0625 -1.375q0.484375 -0.34375 1.078125 -0.34375q0.84375 0 1.71875 0.546875l-0.578125 1.546875q-0.609375 -0.359375 -1.234375 -0.359375q-0.546875 0 -0.984375 0.328125q-0.421875 0.328125 -0.609375 0.90625q-0.28125 0.890625 -0.28125 1.953125l0 5.15625l-1.671875 0z" fill-rule="nonzero"></path><path fill="#cfe2f3" d="m384.05295 72.73718l0 0c-1.8881226 -9.162735 4.310913 -18.233288 15.966614 -23.362686c11.655701 -5.1293983 26.723907 -5.4180565 38.810608 -0.7434921l0 0c4.281494 -5.3275948 12.117859 -9.005928 21.138733 -9.922382c9.020905 -0.9164505 18.16681 1.0366173 24.671234 5.268448l0 0c3.6472778 -4.8303413 10.808746 -8.07571 18.943176 -8.584484c8.13443 -0.5087776 16.090576 1.7910461 21.045227 6.08337l0 0c6.5892944 -5.1201477 17.07312 -7.27594 26.914978 -5.534561c9.841858 1.7413826 17.274048 7.067173 19.080688 13.672874l0 0c8.073059 1.4541435 14.7977295 5.1507683 18.436646 10.134785c3.638855 4.9840164 3.834961 10.766502 0.53759766 15.853455l0 0c7.949585 6.832329 9.809204 15.936325 4.8848877 23.914536c-4.9243774 7.978218 -15.892883 13.632011 -28.812256 14.851494c-0.09106445 7.4878387 -6.3097534 14.358589 -16.259155 17.963966c-9.949402 3.6053772 -22.075867 3.3823853 -31.705322 -0.5830231c-4.1016235 8.967972 -15.646332 15.566528 -29.646423 16.94484c-14.000061 1.3783112 -27.945679 -2.7107086 -35.81186 -10.500473c-9.642242 3.8395996 -21.212158 4.9456635 -32.099792 3.068695c-10.887634 -1.8769684 -20.175842 -6.5788574 -25.76941 -13.045029l0 0c-9.85318 0.7613983 -19.379852 -2.6096878 -23.85196 -8.440216c-4.472107 -5.8305283 -2.937622 -12.879318 3.841858 -17.648079l0 0c-8.789307 -3.4161072 -13.274109 -10.194801 -11.115814 -16.801262c2.1582947 -6.6064606 10.470642 -11.5436325 20.602478 -12.236984z" fill-rule="nonzero"></path><path fill="#000000" fill-opacity="0.0" d="m374.37152 102.12857l0 0c4.1476746 1.6120682 8.9392395 2.3433456 13.731323 2.0956345m6.276581 23.993233c2.060791 -0.15924072 4.080719 -0.49647522 6.0077515 -1.0029755m51.858612 10.978912c-1.4494019 -1.4353485 -2.6629333 -2.9691162 -3.6199036 -4.5752106m69.08072 -1.8694458l0 0c0.7477417 -1.6349945 1.2322388 -3.3177643 1.4453735 -5.0202255m46.517273 -12.360085c0.09692383 -7.971962 -6.7598267 -15.271164 -17.625061 -18.762398m41.552185 -20.002792c-1.7595825 2.7146072 -4.445801 5.1226883 -7.8480225 7.035454m-11.124573 -33.024403l0 0c0.2998047 1.0962181 0.43859863 2.208912 0.41436768 3.3226585m-46.4093 -11.46064l0 0c-1.6436768 1.2772217 -2.9979248 2.704502 -4.020447 4.2373962m-35.968292 -1.7368393l0 0c-0.87597656 1.1600914 -1.5300598 2.3876648 -1.9472656 3.6544456m-43.863373 0.9995842l0 0c2.5575256 0.98913574 4.9236145 2.1796646 7.046234 3.5454369m-61.822754 20.560871l0 0c0.2602234 1.2628555 0.6713867 2.5101547 1.2296753 3.7302017" fill-rule="nonzero"></path><path stroke="#000000" stroke-width="2.0" stroke-linejoin="round" stroke-linecap="butt" d="m384.05295 72.73718l0 0c-1.8881226 -9.162735 4.310913 -18.233288 15.966614 -23.362686c11.655701 -5.1293983 26.723907 -5.4180565 38.810608 -0.7434921l0 0c4.281494 -5.3275948 12.117859 -9.005928 21.138733 -9.922382c9.020905 -0.9164505 18.16681 1.0366173 24.671234 5.268448l0 0c3.6472778 -4.8303413 10.808746 -8.07571 18.943176 -8.584484c8.13443 -0.5087776 16.090576 1.7910461 21.045227 6.08337l0 0c6.5892944 -5.1201477 17.07312 -7.27594 26.914978 -5.534561c9.841858 1.7413826 17.274048 7.067173 19.080688 13.672874l0 0c8.073059 1.4541435 14.7977295 5.1507683 18.436646 10.134785c3.638855 4.9840164 3.834961 10.766502 0.53759766 15.853455l0 0c7.949585 6.832329 9.809204 15.936325 4.8848877 23.914536c-4.9243774 7.978218 -15.892883 13.632011 -28.812256 14.851494c-0.09106445 7.4878387 -6.3097534 14.358589 -16.259155 17.963966c-9.949402 3.6053772 -22.075867 3.3823853 -31.705322 -0.5830231c-4.1016235 8.967972 -15.646332 15.566528 -29.646423 16.94484c-14.000061 1.3783112 -27.945679 -2.7107086 -35.81186 -10.500473c-9.642242 3.8395996 -21.212158 4.9456635 -32.099792 3.068695c-10.887634 -1.8769684 -20.175842 -6.5788574 -25.76941 -13.045029l0 0c-9.85318 0.7613983 -19.379852 -2.6096878 -23.85196 -8.440216c-4.472107 -5.8305283 -2.937622 -12.879318 3.841858 -17.648079l0 0c-8.789307 -3.4161072 -13.274109 -10.194801 -11.115814 -16.801262c2.1582947 -6.6064606 10.470642 -11.5436325 20.602478 -12.236984z" fill-rule="nonzero"></path><path stroke="#000000" stroke-width="2.0" stroke-linejoin="round" stroke-linecap="butt" d="m374.37152 102.12857l0 0c4.1476746 1.6120682 8.9392395 2.3433456 13.731323 2.0956345m6.276581 23.993233c2.060791 -0.15924072 4.080719 -0.49647522 6.0077515 -1.0029755m51.858612 10.978912c-1.4494019 -1.4353485 -2.6629333 -2.9691162 -3.6199036 -4.5752106m69.08072 -1.8694458l0 0c0.7477417 -1.6349945 1.2322388 -3.3177643 1.4453735 -5.0202255m46.517273 -12.360085c0.09692383 -7.971962 -6.7598267 -15.271164 -17.625061 -18.762398m41.552185 -20.002792c-1.7595825 2.7146072 -4.445801 5.1226883 -7.8480225 7.035454m-11.124573 -33.024403l0 0c0.2998047 1.0962181 0.43859863 2.208912 0.41436768 3.3226585m-46.4093 -11.46064l0 0c-1.6436768 1.2772217 -2.9979248 2.704502 -4.020447 4.2373962m-35.968292 -1.7368393l0 0c-0.87597656 1.1600914 -1.5300598 2.3876648 -1.9472656 3.6544456m-43.863373 0.9995842l0 0c2.5575256 0.98913574 4.9236145 2.1796646 7.046234 3.5454369m-61.822754 20.560871l0 0c0.2602234 1.2628555 0.6713867 2.5101547 1.2296753 3.7302017" fill-rule="nonzero"></path><path fill="#000000" d="m412.01526 79.70756l0 -1.609375l5.765625 0l0 5.046875q-1.328125 1.0625 -2.75 1.59375q-1.40625 0.53125 -2.890625 0.53125q-2.0 0 -3.640625 -0.859375q-1.625 -0.859375 -2.46875 -2.484375q-0.828125 -1.625 -0.828125 -3.625q0 -1.984375 0.828125 -3.703125q0.828125 -1.71875 2.390625 -2.546875q1.5625 -0.84375 3.59375 -0.84375q1.46875 0 2.65625 0.484375q1.203125 0.46875 1.875 1.328125q0.671875 0.84375 1.03125 2.21875l-1.625 0.4375q-0.3125 -1.03125 -0.765625 -1.625q-0.453125 -0.59375 -1.296875 -0.953125q-0.84375 -0.359375 -1.875 -0.359375q-1.234375 0 -2.140625 0.375q-0.890625 0.375 -1.453125 1.0q-0.546875 0.609375 -0.84375 1.34375q-0.53125 1.25 -0.53125 2.734375q0 1.8125 0.625 3.046875q0.640625 1.21875 1.828125 1.8125q1.203125 0.59375 2.546875 0.59375q1.171875 0 2.28125 -0.453125q1.109375 -0.453125 1.6875 -0.953125l0 -2.53125l-4.0 0zm7.3082886 0.40625q0 -2.734375 1.53125 -4.0625q1.265625 -1.09375 3.09375 -1.09375q2.03125 0 3.3125 1.34375q1.296875 1.328125 1.296875 3.671875q0 1.90625 -0.578125 3.0q-0.5625 1.078125 -1.65625 1.6875q-1.078125 0.59375 -2.375 0.59375q-2.0625 0 -3.34375 -1.328125q-1.28125 -1.328125 -1.28125 -3.8125zm1.71875 0q0 1.890625 0.828125 2.828125q0.828125 0.9375 2.078125 0.9375q1.25 0 2.0625 -0.9375q0.828125 -0.953125 0.828125 -2.890625q0 -1.828125 -0.828125 -2.765625q-0.828125 -0.9375 -2.0625 -0.9375q-1.25 0 -2.078125 0.9375q-0.828125 0.9375 -0.828125 2.828125zm8.656982 0q0 -2.734375 1.53125 -4.0625q1.265625 -1.09375 3.09375 -1.09375q2.03125 0 3.3125 1.34375q1.296875 1.328125 1.296875 3.671875q0 1.90625 -0.578125 3.0q-0.5625 1.078125 -1.65625 1.6875q-1.078125 0.59375 -2.375 0.59375q-2.0625 0 -3.34375 -1.328125q-1.28125 -1.328125 -1.28125 -3.8125zm1.71875 0q0 1.890625 0.828125 2.828125q0.828125 0.9375 2.078125 0.9375q1.25 0 2.0625 -0.9375q0.828125 -0.953125 0.828125 -2.890625q0 -1.828125 -0.828125 -2.765625q-0.828125 -0.9375 -2.0625 -0.9375q-1.25 0 -2.078125 0.9375q-0.828125 0.9375 -0.828125 2.828125zm8.985077 5.734375l1.609375 0.25q0.109375 0.75 0.578125 1.09375q0.609375 0.453125 1.6875 0.453125q1.171875 0 1.796875 -0.46875q0.625 -0.453125 0.859375 -1.28125q0.125 -0.515625 0.109375 -2.15625q-1.09375 1.296875 -2.71875 1.296875q-2.03125 0 -3.15625 -1.46875q-1.109375 -1.46875 -1.109375 -3.515625q0 -1.40625 0.515625 -2.59375q0.515625 -1.203125 1.484375 -1.84375q0.96875 -0.65625 2.265625 -0.65625q1.75 0 2.875 1.40625l0 -1.1875l1.546875 0l0 8.515625q0 2.3125 -0.46875 3.265625q-0.46875 0.96875 -1.484375 1.515625q-1.015625 0.5625 -2.5 0.5625q-1.765625 0 -2.859375 -0.796875q-1.078125 -0.796875 -1.03125 -2.390625zm1.375 -5.921875q0 1.953125 0.765625 2.84375q0.78125 0.890625 1.9375 0.890625q1.140625 0 1.921875 -0.890625q0.78125 -0.890625 0.78125 -2.78125q0 -1.8125 -0.8125 -2.71875q-0.796875 -0.921875 -1.921875 -0.921875q-1.109375 0 -1.890625 0.90625q-0.78125 0.890625 -0.78125 2.671875zm9.266357 5.109375l0 -13.59375l1.671875 0l0 13.59375l-1.671875 0zm10.926056 -3.171875l1.71875 0.21875q-0.40625 1.5 -1.515625 2.34375q-1.09375 0.828125 -2.8125 0.828125q-2.15625 0 -3.421875 -1.328125q-1.265625 -1.328125 -1.265625 -3.734375q0 -2.484375 1.265625 -3.859375q1.28125 -1.375 3.328125 -1.375q1.984375 0 3.234375 1.34375q1.25 1.34375 1.25 3.796875q0 0.140625 -0.015625 0.4375l-7.34375 0q0.09375 1.625 0.921875 2.484375q0.828125 0.859375 2.0625 0.859375q0.90625 0 1.546875 -0.46875q0.65625 -0.484375 1.046875 -1.546875zm-5.484375 -2.703125l5.5 0q-0.109375 -1.234375 -0.625 -1.859375q-0.796875 -0.96875 -2.078125 -0.96875q-1.140625 0 -1.9375 0.78125q-0.78125 0.765625 -0.859375 2.046875zm24.215271 1.109375l1.796875 0.453125q-0.5625 2.21875 -2.03125 3.390625q-1.46875 1.15625 -3.59375 1.15625q-2.203125 0 -3.578125 -0.890625q-1.375 -0.90625 -2.09375 -2.59375q-0.71875 -1.703125 -0.71875 -3.65625q0 -2.125 0.796875 -3.703125q0.8125 -1.578125 2.3125 -2.390625q1.5 -0.828125 3.296875 -0.828125q2.046875 0 3.4375 1.046875q1.390625 1.03125 1.9375 2.90625l-1.765625 0.421875q-0.46875 -1.484375 -1.375 -2.15625q-0.90625 -0.6875 -2.265625 -0.6875q-1.5625 0 -2.625 0.75q-1.046875 0.75 -1.484375 2.03125q-0.421875 1.265625 -0.421875 2.609375q0 1.734375 0.5 3.03125q0.515625 1.28125 1.578125 1.921875q1.078125 0.640625 2.3125 0.640625q1.515625 0 2.5625 -0.859375q1.046875 -0.875 1.421875 -2.59375zm3.5198364 4.765625l0 -13.59375l1.671875 0l0 13.59375l-1.671875 0zm3.551056 -4.921875q0 -2.734375 1.53125 -4.0625q1.265625 -1.09375 3.09375 -1.09375q2.03125 0 3.3125 1.34375q1.296875 1.328125 1.296875 3.671875q0 1.90625 -0.578125 3.0q-0.5625 1.078125 -1.65625 1.6875q-1.078125 0.59375 -2.375 0.59375q-2.0625 0 -3.34375 -1.328125q-1.28125 -1.328125 -1.28125 -3.8125zm1.71875 0q0 1.890625 0.828125 2.828125q0.828125 0.9375 2.078125 0.9375q1.25 0 2.0625 -0.9375q0.828125 -0.953125 0.828125 -2.890625q0 -1.828125 -0.828125 -2.765625q-0.828125 -0.9375 -2.0625 -0.9375q-1.25 0 -2.078125 0.9375q-0.828125 0.9375 -0.828125 2.828125zm15.735107 4.921875l0 -1.453125q-1.140625 1.671875 -3.125 1.671875q-0.859375 0 -1.625 -0.328125q-0.75 -0.34375 -1.125 -0.84375q-0.359375 -0.5 -0.515625 -1.234375q-0.09375 -0.5 -0.09375 -1.5625l0 -6.109375l1.671875 0l0 5.46875q0 1.3125 0.09375 1.765625q0.15625 0.65625 0.671875 1.03125q0.515625 0.375 1.265625 0.375q0.75 0 1.40625 -0.375q0.65625 -0.390625 0.921875 -1.046875q0.28125 -0.671875 0.28125 -1.9375l0 -5.28125l1.671875 0l0 9.859375l-1.5 0zm10.313202 0l0 -1.25q-0.9375 1.46875 -2.75 1.46875q-1.171875 0 -2.171875 -0.640625q-0.984375 -0.65625 -1.53125 -1.8125q-0.53125 -1.171875 -0.53125 -2.6875q0 -1.46875 0.484375 -2.671875q0.5 -1.203125 1.46875 -1.84375q0.984375 -0.640625 2.203125 -0.640625q0.890625 0 1.578125 0.375q0.703125 0.375 1.140625 0.984375l0 -4.875l1.65625 0l0 13.59375l-1.546875 0zm-5.28125 -4.921875q0 1.890625 0.796875 2.828125q0.8125 0.9375 1.890625 0.9375q1.09375 0 1.859375 -0.890625q0.765625 -0.890625 0.765625 -2.734375q0 -2.015625 -0.78125 -2.953125q-0.78125 -0.953125 -1.921875 -0.953125q-1.109375 0 -1.859375 0.90625q-0.75 0.90625 -0.75 2.859375z" fill-rule="nonzero"></path><path fill="#000000" d="m405.59338 107.03568l0 -13.59375l2.71875 0l3.21875 9.625q0.4375 1.34375 0.640625 2.015625q0.234375 -0.75 0.734375 -2.1875l3.25 -9.453125l2.421875 0l0 13.59375l-1.734375 0l0 -11.390625l-3.953125 11.390625l-1.625 0l-3.9375 -11.578125l0 11.578125l-1.734375 0zm22.134552 -3.171875l1.71875 0.21875q-0.40625 1.5 -1.515625 2.34375q-1.09375 0.828125 -2.8125 0.828125q-2.15625 0 -3.421875 -1.328125q-1.265625 -1.328125 -1.265625 -3.734375q0 -2.484375 1.265625 -3.859375q1.28125 -1.375 3.328125 -1.375q1.984375 0 3.234375 1.34375q1.25 1.34375 1.25 3.796875q0 0.140625 -0.015625 0.4375l-7.34375 0q0.09375 1.625 0.921875 2.484375q0.828125 0.859375 2.0625 0.859375q0.90625 0 1.546875 -0.46875q0.65625 -0.484375 1.046875 -1.546875zm-5.484375 -2.703125l5.5 0q-0.109375 -1.234375 -0.625 -1.859375q-0.796875 -0.96875 -2.078125 -0.96875q-1.140625 0 -1.9375 0.78125q-0.78125 0.765625 -0.859375 2.046875zm8.438202 2.9375l1.65625 -0.265625q0.140625 1.0 0.765625 1.53125q0.640625 0.515625 1.78125 0.515625q1.15625 0 1.703125 -0.46875q0.5625 -0.46875 0.5625 -1.09375q0 -0.5625 -0.484375 -0.890625q-0.34375 -0.21875 -1.703125 -0.5625q-1.84375 -0.46875 -2.5625 -0.796875q-0.703125 -0.34375 -1.078125 -0.9375q-0.359375 -0.609375 -0.359375 -1.328125q0 -0.65625 0.296875 -1.21875q0.3125 -0.5625 0.828125 -0.9375q0.390625 -0.28125 1.0625 -0.484375q0.671875 -0.203125 1.4375 -0.203125q1.171875 0 2.046875 0.34375q0.875 0.328125 1.28125 0.90625q0.421875 0.5625 0.578125 1.515625l-1.625 0.21875q-0.109375 -0.75 -0.65625 -1.171875q-0.53125 -0.4375 -1.5 -0.4375q-1.15625 0 -1.640625 0.390625q-0.484375 0.375 -0.484375 0.875q0 0.328125 0.203125 0.59375q0.203125 0.265625 0.640625 0.4375q0.25 0.09375 1.46875 0.4375q1.765625 0.46875 2.46875 0.765625q0.703125 0.296875 1.09375 0.875q0.40625 0.578125 0.40625 1.4375q0 0.828125 -0.484375 1.578125q-0.484375 0.734375 -1.40625 1.140625q-0.921875 0.390625 -2.078125 0.390625q-1.921875 0 -2.9375 -0.796875q-1.0 -0.796875 -1.28125 -2.359375zm9.328125 0l1.65625 -0.265625q0.140625 1.0 0.765625 1.53125q0.640625 0.515625 1.78125 0.515625q1.15625 0 1.703125 -0.46875q0.5625 -0.46875 0.5625 -1.09375q0 -0.5625 -0.484375 -0.890625q-0.34375 -0.21875 -1.703125 -0.5625q-1.84375 -0.46875 -2.5625 -0.796875q-0.703125 -0.34375 -1.078125 -0.9375q-0.359375 -0.609375 -0.359375 -1.328125q0 -0.65625 0.296875 -1.21875q0.3125 -0.5625 0.828125 -0.9375q0.390625 -0.28125 1.0625 -0.484375q0.671875 -0.203125 1.4375 -0.203125q1.171875 0 2.046875 0.34375q0.875 0.328125 1.28125 0.90625q0.421875 0.5625 0.578125 1.515625l-1.625 0.21875q-0.109375 -0.75 -0.65625 -1.171875q-0.53125 -0.4375 -1.5 -0.4375q-1.15625 0 -1.640625 0.390625q-0.484375 0.375 -0.484375 0.875q0 0.328125 0.203125 0.59375q0.203125 0.265625 0.640625 0.4375q0.25 0.09375 1.46875 0.4375q1.765625 0.46875 2.46875 0.765625q0.703125 0.296875 1.09375 0.875q0.40625 0.578125 0.40625 1.4375q0 0.828125 -0.484375 1.578125q-0.484375 0.734375 -1.40625 1.140625q-0.921875 0.390625 -2.078125 0.390625q-1.921875 0 -2.9375 -0.796875q-1.0 -0.796875 -1.28125 -2.359375zm16.4375 1.71875q-0.9375 0.796875 -1.796875 1.125q-0.859375 0.3125 -1.84375 0.3125q-1.609375 0 -2.484375 -0.78125q-0.875 -0.796875 -0.875 -2.03125q0 -0.734375 0.328125 -1.328125q0.328125 -0.59375 0.859375 -0.953125q0.53125 -0.359375 1.203125 -0.546875q0.5 -0.140625 1.484375 -0.25q2.03125 -0.25 2.984375 -0.578125q0 -0.34375 0 -0.4375q0 -1.015625 -0.46875 -1.4375q-0.640625 -0.5625 -1.90625 -0.5625q-1.171875 0 -1.734375 0.40625q-0.5625 0.40625 -0.828125 1.46875l-1.640625 -0.234375q0.234375 -1.046875 0.734375 -1.6875q0.515625 -0.640625 1.46875 -0.984375q0.96875 -0.359375 2.25 -0.359375q1.265625 0 2.046875 0.296875q0.78125 0.296875 1.15625 0.75q0.375 0.453125 0.515625 1.140625q0.09375 0.421875 0.09375 1.53125l0 2.234375q0 2.328125 0.09375 2.953125q0.109375 0.609375 0.4375 1.171875l-1.75 0q-0.265625 -0.515625 -0.328125 -1.21875zm-0.140625 -3.71875q-0.90625 0.359375 -2.734375 0.625q-1.03125 0.140625 -1.453125 0.328125q-0.421875 0.1875 -0.65625 0.546875q-0.234375 0.359375 -0.234375 0.796875q0 0.671875 0.5 1.125q0.515625 0.4375 1.484375 0.4375q0.96875 0 1.71875 -0.421875q0.75 -0.4375 1.109375 -1.15625q0.265625 -0.578125 0.265625 -1.671875l0 -0.609375zm3.7819824 5.75l1.609375 0.25q0.109375 0.75 0.578125 1.09375q0.609375 0.453125 1.6875 0.453125q1.171875 0 1.796875 -0.46875q0.625 -0.453125 0.859375 -1.28125q0.125 -0.515625 0.109375 -2.15625q-1.09375 1.296875 -2.71875 1.296875q-2.03125 0 -3.15625 -1.46875q-1.109375 -1.46875 -1.109375 -3.515625q0 -1.40625 0.515625 -2.59375q0.515625 -1.203125 1.484375 -1.84375q0.96875 -0.65625 2.265625 -0.65625q1.75 0 2.875 1.40625l0 -1.1875l1.546875 0l0 8.515625q0 2.3125 -0.46875 3.265625q-0.46875 0.96875 -1.484375 1.515625q-1.015625 0.5625 -2.5 0.5625q-1.765625 0 -2.859375 -0.796875q-1.078125 -0.796875 -1.03125 -2.390625zm1.375 -5.921875q0 1.953125 0.765625 2.84375q0.78125 0.890625 1.9375 0.890625q1.140625 0 1.921875 -0.890625q0.78125 -0.890625 0.78125 -2.78125q0 -1.8125 -0.8125 -2.71875q-0.796875 -0.921875 -1.921875 -0.921875q-1.109375 0 -1.890625 0.90625q-0.78125 0.890625 -0.78125 2.671875zm9.313202 -6.578125l0 -1.90625l1.671875 0l0 1.90625l-1.671875 0zm0 11.6875l0 -9.859375l1.671875 0l0 9.859375l-1.671875 0zm4.1292114 0l0 -9.859375l1.5 0l0 1.40625q1.09375 -1.625 3.140625 -1.625q0.890625 0 1.640625 0.328125q0.75 0.3125 1.109375 0.84375q0.375 0.515625 0.53125 1.21875q0.09375 0.46875 0.09375 1.625l0 6.0625l-1.671875 0l0 -6.0q0 -1.015625 -0.203125 -1.515625q-0.1875 -0.515625 -0.6875 -0.8125q-0.5 -0.296875 -1.171875 -0.296875q-1.0625 0 -1.84375 0.671875q-0.765625 0.671875 -0.765625 2.578125l0 5.375l-1.671875 0zm10.078827 0.8125l1.609375 0.25q0.109375 0.75 0.578125 1.09375q0.609375 0.453125 1.6875 0.453125q1.171875 0 1.796875 -0.46875q0.625 -0.453125 0.859375 -1.28125q0.125 -0.515625 0.109375 -2.15625q-1.09375 1.296875 -2.71875 1.296875q-2.03125 0 -3.15625 -1.46875q-1.109375 -1.46875 -1.109375 -3.515625q0 -1.40625 0.515625 -2.59375q0.515625 -1.203125 1.484375 -1.84375q0.96875 -0.65625 2.265625 -0.65625q1.75 0 2.875 1.40625l0 -1.1875l1.546875 0l0 8.515625q0 2.3125 -0.46875 3.265625q-0.46875 0.96875 -1.484375 1.515625q-1.015625 0.5625 -2.5 0.5625q-1.765625 0 -2.859375 -0.796875q-1.078125 -0.796875 -1.03125 -2.390625zm1.375 -5.921875q0 1.953125 0.765625 2.84375q0.78125 0.890625 1.9375 0.890625q1.140625 0 1.921875 -0.890625q0.78125 -0.890625 0.78125 -2.78125q0 -1.8125 -0.8125 -2.71875q-0.796875 -0.921875 -1.921875 -0.921875q-1.109375 0 -1.890625 0.90625q-0.78125 0.890625 -0.78125 2.671875z" fill-rule="nonzero"></path><path fill="#b6d7a8" d="m54.220474 225.14735l0 0c0 -10.457367 8.477379 -18.934753 18.934761 -18.934753l159.13837 0c5.021805 0 9.837936 1.9949036 13.388901 5.545868c3.550949 3.550949 5.5458527 8.367081 5.5458527 13.3888855l0 75.73677c0 10.457397 -8.477371 18.934784 -18.934753 18.934784l-159.13837 0c-10.457382 0 -18.934761 -8.477386 -18.934761 -18.934784z" fill-rule="nonzero"></path><path stroke="#000000" stroke-width="2.0" stroke-linejoin="round" stroke-linecap="butt" d="m54.220474 225.14735l0 0c0 -10.457367 8.477379 -18.934753 18.934761 -18.934753l159.13837 0c5.021805 0 9.837936 1.9949036 13.388901 5.545868c3.550949 3.550949 5.5458527 8.367081 5.5458527 13.3888855l0 75.73677c0 10.457397 -8.477371 18.934784 -18.934753 18.934784l-159.13837 0c-10.457382 0 -18.934761 -8.477386 -18.934761 -18.934784z" fill-rule="nonzero"></path><path fill="#000000" d="m117.81369 258.93576l0 -13.593765l5.109375 0q1.546875 0 2.484375 0.40625q0.953125 0.40625 1.484375 1.265625q0.53125 0.859375 0.53125 1.796875q0 0.875 -0.46875 1.65625q-0.46875 0.765625 -1.4375 1.234375q1.234375 0.359375 1.890625 1.234375q0.671875 0.875 0.671875 2.0625q0 0.953125 -0.40625 1.7812653q-0.390625 0.8125 -0.984375 1.265625q-0.59375 0.4375 -1.5 0.671875q-0.890625 0.21875 -2.1875 0.21875l-5.1875 0zm1.796875 -7.8906403l2.9375 0q1.203125 0 1.71875 -0.15625q0.6875 -0.203125 1.03125 -0.671875q0.359375 -0.46875 0.359375 -1.1875q0 -0.671875 -0.328125 -1.1875q-0.328125 -0.515625 -0.9375 -0.703125q-0.59375 -0.203125 -2.0625 -0.203125l-2.71875 0l0 4.109375zm0 6.2812653l3.390625 0q0.875 0 1.21875 -0.0625q0.625 -0.109375 1.046875 -0.359375q0.421875 -0.265625 0.6875 -0.765625q0.265625 -0.50001526 0.265625 -1.1406403q0 -0.765625 -0.390625 -1.328125q-0.390625 -0.5625 -1.078125 -0.78125q-0.6875 -0.234375 -1.984375 -0.234375l-3.15625 0l0 4.6718903zm16.943573 0.390625q-0.9375 0.796875 -1.796875 1.125q-0.859375 0.3125 -1.84375 0.3125q-1.609375 0 -2.484375 -0.78125q-0.875 -0.796875 -0.875 -2.03125q0 -0.73439026 0.328125 -1.3281403q0.328125 -0.59375 0.859375 -0.953125q0.53125 -0.359375 1.203125 -0.546875q0.5 -0.140625 1.484375 -0.25q2.03125 -0.25 2.984375 -0.578125q0 -0.34375 0 -0.4375q0 -1.015625 -0.46875 -1.4375q-0.640625 -0.5625 -1.90625 -0.5625q-1.171875 0 -1.734375 0.40625q-0.5625 0.40625 -0.828125 1.46875l-1.640625 -0.234375q0.234375 -1.046875 0.734375 -1.6875q0.515625 -0.640625 1.46875 -0.984375q0.96875 -0.359375 2.25 -0.359375q1.265625 0 2.046875 0.296875q0.78125 0.296875 1.15625 0.75q0.375 0.453125 0.515625 1.140625q0.09375 0.421875 0.09375 1.53125l0 2.234375q0 2.3281403 0.09375 2.9531403q0.109375 0.609375 0.4375 1.171875l-1.75 0q-0.265625 -0.515625 -0.328125 -1.21875zm-0.140625 -3.7187653q-0.90625 0.359375 -2.734375 0.625q-1.03125 0.140625 -1.453125 0.328125q-0.421875 0.1875 -0.65625 0.546875q-0.234375 0.359375 -0.234375 0.79689026q0 0.671875 0.5 1.125q0.515625 0.4375 1.484375 0.4375q0.96875 0 1.71875 -0.421875q0.75 -0.4375 1.109375 -1.15625q0.265625 -0.57814026 0.265625 -1.6718903l0 -0.609375zm10.516342 1.328125l1.640625 0.21875q-0.265625 1.6875153 -1.375 2.6562653q-1.109375 0.953125 -2.734375 0.953125q-2.015625 0 -3.25 -1.3125q-1.21875 -1.328125 -1.21875 -3.7968903q0 -1.59375 0.515625 -2.78125q0.53125 -1.203125 1.609375 -1.796875q1.09375 -0.609375 2.359375 -0.609375q1.609375 0 2.625 0.8125q1.015625 0.8125 1.3125 2.3125l-1.625 0.25q-0.234375 -1.0 -0.828125 -1.5q-0.59375 -0.5 -1.421875 -0.5q-1.265625 0 -2.0625 0.90625q-0.78125 0.90625 -0.78125 2.859375q0 1.984375 0.765625 2.8906403q0.765625 0.890625 1.984375 0.890625q0.984375 0 1.640625 -0.59375q0.65625 -0.609375 0.84375 -1.8593903zm2.90625 3.6093903l0 -13.593765l1.671875 0l0 7.75l3.953125 -4.015625l2.15625 0l-3.765625 3.65625l4.140625 6.2031403l-2.0625 0l-3.25 -5.0312653l-1.171875 1.125l0 3.9062653l-1.671875 0zm16.0625 -3.1718903l1.71875 0.21875q-0.40625 1.5000153 -1.515625 2.3437653q-1.09375 0.828125 -2.8125 0.828125q-2.15625 0 -3.421875 -1.328125q-1.265625 -1.328125 -1.265625 -3.7343903q0 -2.484375 1.265625 -3.859375q1.28125 -1.375 3.328125 -1.375q1.984375 0 3.234375 1.34375q1.25 1.34375 1.25 3.796875q0 0.140625 -0.015625 0.4375l-7.34375 0q0.09375 1.6250153 0.921875 2.4843903q0.828125 0.859375 2.0625 0.859375q0.90625 0 1.546875 -0.46875q0.65625 -0.484375 1.046875 -1.5468903zm-5.484375 -2.703125l5.5 0q-0.109375 -1.234375 -0.625 -1.859375q-0.796875 -0.96875 -2.078125 -0.96875q-1.140625 0 -1.9375 0.78125q-0.78125 0.765625 -0.859375 2.046875zm9.110092 5.8750153l0 -9.85939l1.5 0l0 1.40625q1.09375 -1.625 3.140625 -1.625q0.890625 0 1.640625 0.328125q0.75 0.3125 1.109375 0.84375q0.375 0.515625 0.53125 1.21875q0.09375 0.46875 0.09375 1.625l0 6.0625153l-1.671875 0l0 -6.0000153q0 -1.015625 -0.203125 -1.515625q-0.1875 -0.515625 -0.6875 -0.8125q-0.5 -0.296875 -1.171875 -0.296875q-1.0625 0 -1.84375 0.671875q-0.765625 0.671875 -0.765625 2.578125l0 5.3750153l-1.671875 0zm16.766342 0l0 -1.25q-0.9375 1.46875 -2.75 1.46875q-1.171875 0 -2.171875 -0.640625q-0.984375 -0.65625 -1.53125 -1.8125q-0.53125 -1.1718903 -0.53125 -2.6875153q0 -1.46875 0.484375 -2.671875q0.5 -1.203125 1.46875 -1.84375q0.984375 -0.640625 2.203125 -0.640625q0.890625 0 1.578125 0.375q0.703125 0.375 1.140625 0.984375l0 -4.875l1.65625 0l0 13.593765l-1.546875 0zm-5.28125 -4.9218903q0 1.890625 0.796875 2.8281403q0.8125 0.9375 1.890625 0.9375q1.09375 0 1.859375 -0.890625q0.765625 -0.89064026 0.765625 -2.7343903q0 -2.015625 -0.78125 -2.953125q-0.78125 -0.953125 -1.921875 -0.953125q-1.109375 0 -1.859375 0.90625q-0.75 0.90625 -0.75 2.859375z" fill-rule="nonzero"></path><path fill="#000000" d="m96.64847 280.93576l0 -13.59375l4.6875 0q1.578125 0 2.421875 0.1875q1.15625 0.265625 1.984375 0.96875q1.078125 0.921875 1.609375 2.34375q0.53125 1.40625 0.53125 3.21875q0 1.546875 -0.359375 2.75q-0.359375 1.1875 -0.921875 1.984375q-0.5625 0.78125 -1.234375 1.234375q-0.671875 0.4375 -1.625 0.671875q-0.953125 0.234375 -2.1875 0.234375l-4.90625 0zm1.796875 -1.609375l2.90625 0q1.34375 0 2.109375 -0.25q0.765625 -0.25 1.21875 -0.703125q0.640625 -0.640625 1.0 -1.71875q0.359375 -1.078125 0.359375 -2.625q0 -2.125 -0.703125 -3.265625q-0.703125 -1.15625 -1.703125 -1.546875q-0.71875 -0.28125 -2.328125 -0.28125l-2.859375 0l0 10.390625zm11.457321 -10.046875l0 -1.9375l1.65625 0l0 1.9375l-1.65625 0zm-2.125 15.484375l0.3125 -1.421875q0.5 0.125 0.796875 0.125q0.515625 0 0.765625 -0.34375q0.25 -0.328125 0.25 -1.6875l0 -10.359375l1.65625 0l0 10.390625q0 1.828125 -0.46875 2.546875q-0.59375 0.921875 -2.0 0.921875q-0.671875 0 -1.3125 -0.171875zm12.707321 -5.046875q-0.9375 0.796875 -1.796875 1.125q-0.859375 0.3125 -1.84375 0.3125q-1.609375 0 -2.484375 -0.78125q-0.875 -0.796875 -0.875 -2.03125q0 -0.734375 0.328125 -1.328125q0.328125 -0.59375 0.859375 -0.953125q0.53125 -0.359375 1.203125 -0.546875q0.5 -0.140625 1.484375 -0.25q2.03125 -0.25 2.984375 -0.578125q0 -0.34375 0 -0.4375q0 -1.015625 -0.46875 -1.4375q-0.640625 -0.5625 -1.90625 -0.5625q-1.171875 0 -1.734375 0.40625q-0.5625 0.40625 -0.828125 1.46875l-1.640625 -0.234375q0.234375 -1.046875 0.734375 -1.6875q0.515625 -0.640625 1.46875 -0.984375q0.96875 -0.359375 2.25 -0.359375q1.265625 0 2.046875 0.296875q0.78125 0.296875 1.15625 0.75q0.375 0.453125 0.515625 1.140625q0.09375 0.421875 0.09375 1.53125l0 2.234375q0 2.328125 0.09375 2.953125q0.109375 0.609375 0.4375 1.171875l-1.75 0q-0.265625 -0.515625 -0.328125 -1.21875zm-0.140625 -3.71875q-0.90625 0.359375 -2.734375 0.625q-1.03125 0.140625 -1.453125 0.328125q-0.421875 0.1875 -0.65625 0.546875q-0.234375 0.359375 -0.234375 0.796875q0 0.671875 0.5 1.125q0.515625 0.4375 1.484375 0.4375q0.96875 0 1.71875 -0.421875q0.75 -0.4375 1.109375 -1.15625q0.265625 -0.578125 0.265625 -1.671875l0 -0.609375zm4.078842 4.9375l0 -9.859375l1.5 0l0 1.40625q1.09375 -1.625 3.140625 -1.625q0.890625 0 1.640625 0.328125q0.75 0.3125 1.109375 0.84375q0.375 0.515625 0.53125 1.21875q0.09375 0.46875 0.09375 1.625l0 6.0625l-1.671875 0l0 -6.0q0 -1.015625 -0.203125 -1.515625q-0.1875 -0.515625 -0.6875 -0.8125q-0.5 -0.296875 -1.171875 -0.296875q-1.0625 0 -1.84375 0.671875q-0.765625 0.671875 -0.765625 2.578125l0 5.375l-1.671875 0zm10.078842 0.8125l1.609375 0.25q0.109375 0.75 0.578125 1.09375q0.609375 0.453125 1.6875 0.453125q1.171875 0 1.796875 -0.46875q0.625 -0.453125 0.859375 -1.28125q0.125 -0.515625 0.109375 -2.15625q-1.09375 1.296875 -2.71875 1.296875q-2.03125 0 -3.15625 -1.46875q-1.109375 -1.46875 -1.109375 -3.515625q0 -1.40625 0.515625 -2.59375q0.515625 -1.203125 1.484375 -1.84375q0.96875 -0.65625 2.265625 -0.65625q1.75 0 2.875 1.40625l0 -1.1875l1.546875 0l0 8.515625q0 2.3125 -0.46875 3.265625q-0.46875 0.96875 -1.484375 1.515625q-1.015625 0.5625 -2.5 0.5625q-1.765625 0 -2.859375 -0.796875q-1.078125 -0.796875 -1.03125 -2.390625zm1.375 -5.921875q0 1.953125 0.765625 2.84375q0.78125 0.890625 1.9375 0.890625q1.140625 0 1.921875 -0.890625q0.78125 -0.890625 0.78125 -2.78125q0 -1.8125 -0.8125 -2.71875q-0.796875 -0.921875 -1.921875 -0.921875q-1.109375 0 -1.890625 0.90625q-0.78125 0.890625 -0.78125 2.671875zm8.672592 0.1875q0 -2.734375 1.53125 -4.0625q1.265625 -1.09375 3.09375 -1.09375q2.03125 0 3.3125 1.34375q1.296875 1.328125 1.296875 3.671875q0 1.90625 -0.578125 3.0q-0.5625 1.078125 -1.65625 1.6875q-1.078125 0.59375 -2.375 0.59375q-2.0625 0 -3.34375 -1.328125q-1.28125 -1.328125 -1.28125 -3.8125zm1.71875 0q0 1.890625 0.828125 2.828125q0.828125 0.9375 2.078125 0.9375q1.25 0 2.0625 -0.9375q0.828125 -0.953125 0.828125 -2.890625q0 -1.828125 -0.828125 -2.765625q-0.828125 -0.9375 -2.0625 -0.9375q-1.25 0 -2.078125 0.9375q-0.828125 0.9375 -0.828125 2.828125zm8.641342 0.84375l0 -1.6875l5.125 0l0 1.6875l-5.125 0zm7.103302 4.078125l0 -13.59375l6.03125 0q1.8125 0 2.75 0.359375q0.953125 0.359375 1.515625 1.296875q0.5625 0.921875 0.5625 2.046875q0 1.453125 -0.9375 2.453125q-0.921875 0.984375 -2.890625 1.25q0.71875 0.34375 1.09375 0.671875q0.78125 0.734375 1.484375 1.8125l2.375 3.703125l-2.265625 0l-1.796875 -2.828125q-0.796875 -1.21875 -1.3125 -1.875q-0.5 -0.65625 -0.90625 -0.90625q-0.40625 -0.265625 -0.8125 -0.359375q-0.3125 -0.078125 -1.015625 -0.078125l-2.078125 0l0 6.046875l-1.796875 0zm1.796875 -7.59375l3.859375 0q1.234375 0 1.921875 -0.25q0.703125 -0.265625 1.0625 -0.828125q0.375 -0.5625 0.375 -1.21875q0 -0.96875 -0.703125 -1.578125q-0.703125 -0.625 -2.21875 -0.625l-4.296875 0l0 4.5zm11.676071 7.59375l0 -13.59375l9.84375 0l0 1.59375l-8.046875 0l0 4.171875l7.53125 0l0 1.59375l-7.53125 0l0 4.625l8.359375 0l0 1.609375l-10.15625 0zm11.802948 -4.375l1.6875 -0.140625q0.125 1.015625 0.5625 1.671875q0.4375 0.65625 1.359375 1.0625q0.9375 0.40625 2.09375 0.40625q1.03125 0 1.8125 -0.3125q0.796875 -0.3125 1.1875 -0.84375q0.390625 -0.53125 0.390625 -1.15625q0 -0.640625 -0.375 -1.109375q-0.375 -0.484375 -1.234375 -0.8125q-0.546875 -0.21875 -2.421875 -0.65625q-1.875 -0.453125 -2.625 -0.859375q-0.96875 -0.515625 -1.453125 -1.265625q-0.46875 -0.75 -0.46875 -1.6875q0 -1.03125 0.578125 -1.921875q0.59375 -0.90625 1.703125 -1.359375q1.125 -0.46875 2.5 -0.46875q1.515625 0 2.671875 0.484375q1.15625 0.484375 1.765625 1.4375q0.625 0.9375 0.671875 2.140625l-1.71875 0.125q-0.140625 -1.28125 -0.953125 -1.9375q-0.796875 -0.671875 -2.359375 -0.671875q-1.625 0 -2.375 0.609375q-0.75 0.59375 -0.75 1.4375q0 0.734375 0.53125 1.203125q0.515625 0.46875 2.703125 0.96875q2.203125 0.5 3.015625 0.875q1.1875 0.546875 1.75 1.390625q0.578125 0.828125 0.578125 1.921875q0 1.09375 -0.625 2.0625q-0.625 0.953125 -1.796875 1.484375q-1.15625 0.53125 -2.609375 0.53125q-1.84375 0 -3.09375 -0.53125q-1.25 -0.546875 -1.96875 -1.625q-0.703125 -1.078125 -0.734375 -2.453125zm16.506073 4.375l0 -12.0l-4.46875 0l0 -1.59375l10.765625 0l0 1.59375l-4.5 0l0 12.0l-1.796875 0z" fill-rule="nonzero"></path><path fill="#fce5cd" d="m723.4829 227.47804l0 0c0 -9.813751 7.9556274 -17.769379 17.76941 -17.769379l145.34314 0c4.7127075 0 9.232422 1.8721161 12.564819 5.204529c3.3323975 3.3324127 5.204529 7.852112 5.204529 12.56485l0 71.07539c0 9.813782 -7.9556274 17.76941 -17.769348 17.76941l-145.34314 0c-9.813782 0 -17.76941 -7.9556274 -17.76941 -17.76941z" fill-rule="nonzero"></path><path stroke="#000000" stroke-width="2.0" stroke-linejoin="round" stroke-linecap="butt" d="m723.4829 227.47804l0 0c0 -9.813751 7.9556274 -17.769379 17.76941 -17.769379l145.34314 0c4.7127075 0 9.232422 1.8721161 12.564819 5.204529c3.3323975 3.3324127 5.204529 7.852112 5.204529 12.56485l0 71.07539c0 9.813782 -7.9556274 17.76941 -17.769348 17.76941l-145.34314 0c-9.813782 0 -17.76941 -7.9556274 -17.76941 -17.76941z" fill-rule="nonzero"></path><path fill="#000000" d="m758.6696 269.93576l0 -13.59375l1.671875 0l0 7.75l3.953125 -4.015625l2.15625 0l-3.765625 3.65625l4.140625 6.203125l-2.0625 0l-3.25 -5.03125l-1.171875 1.125l0 3.90625l-1.671875 0zm9.28125 0l0 -13.59375l1.671875 0l0 13.59375l-1.671875 0zm4.1917114 -11.6875l0 -1.90625l1.671875 0l0 1.90625l-1.671875 0zm0 11.6875l0 -9.859375l1.671875 0l0 9.859375l-1.671875 0zm10.879211 -3.171875l1.71875 0.21875q-0.40625 1.5 -1.515625 2.34375q-1.09375 0.828125 -2.8125 0.828125q-2.15625 0 -3.421875 -1.328125q-1.265625 -1.328125 -1.265625 -3.734375q0 -2.484375 1.265625 -3.859375q1.28125 -1.375 3.328125 -1.375q1.984375 0 3.234375 1.34375q1.25 1.34375 1.25 3.796875q0 0.140625 -0.015625 0.4375l-7.34375 0q0.09375 1.625 0.921875 2.484375q0.828125 0.859375 2.0625 0.859375q0.90625 0 1.546875 -0.46875q0.65625 -0.484375 1.046875 -1.546875zm-5.484375 -2.703125l5.5 0q-0.109375 -1.234375 -0.625 -1.859375q-0.796875 -0.96875 -2.078125 -0.96875q-1.140625 0 -1.9375 0.78125q-0.78125 0.765625 -0.859375 2.046875zm9.110046 5.875l0 -9.859375l1.5 0l0 1.40625q1.09375 -1.625 3.140625 -1.625q0.890625 0 1.640625 0.328125q0.75 0.3125 1.109375 0.84375q0.375 0.515625 0.53125 1.21875q0.09375 0.46875 0.09375 1.625l0 6.0625l-1.671875 0l0 -6.0q0 -1.015625 -0.203125 -1.515625q-0.1875 -0.515625 -0.6875 -0.8125q-0.5 -0.296875 -1.171875 -0.296875q-1.0625 0 -1.84375 0.671875q-0.765625 0.671875 -0.765625 2.578125l0 5.375l-1.671875 0zm14.031982 -1.5l0.234375 1.484375q-0.703125 0.140625 -1.265625 0.140625q-0.90625 0 -1.40625 -0.28125q-0.5 -0.296875 -0.703125 -0.75q-0.203125 -0.46875 -0.203125 -1.984375l0 -5.65625l-1.234375 0l0 -1.3125l1.234375 0l0 -2.4375l1.65625 -1.0l0 3.4375l1.6875 0l0 1.3125l-1.6875 0l0 5.75q0 0.71875 0.078125 0.921875q0.09375 0.203125 0.296875 0.328125q0.203125 0.125 0.578125 0.125q0.265625 0 0.734375 -0.078125zm5.429138 1.5l5.234375 -13.59375l1.9375 0l5.5625 13.59375l-2.046875 0l-1.59375 -4.125l-5.6875 0l-1.484375 4.125l-1.921875 0zm3.921875 -5.578125l4.609375 0l-1.40625 -3.78125q-0.65625 -1.703125 -0.96875 -2.8125q-0.265625 1.3125 -0.734375 2.59375l-1.5 4.0zm9.8029175 5.578125l0 -9.859375l1.5 0l0 1.40625q1.09375 -1.625 3.140625 -1.625q0.890625 0 1.640625 0.328125q0.75 0.3125 1.109375 0.84375q0.375 0.515625 0.53125 1.21875q0.09375 0.46875 0.09375 1.625l0 6.0625l-1.671875 0l0 -6.0q0 -1.015625 -0.203125 -1.515625q-0.1875 -0.515625 -0.6875 -0.8125q-0.5 -0.296875 -1.171875 -0.296875q-1.0625 0 -1.84375 0.671875q-0.765625 0.671875 -0.765625 2.578125l0 5.375l-1.671875 0zm16.766357 0l0 -1.25q-0.9375 1.46875 -2.75 1.46875q-1.171875 0 -2.171875 -0.640625q-0.984375 -0.65625 -1.53125 -1.8125q-0.53125 -1.171875 -0.53125 -2.6875q0 -1.46875 0.484375 -2.671875q0.5 -1.203125 1.46875 -1.84375q0.984375 -0.640625 2.203125 -0.640625q0.890625 0 1.578125 0.375q0.703125 0.375 1.140625 0.984375l0 -4.875l1.65625 0l0 13.59375l-1.546875 0zm-5.28125 -4.921875q0 1.890625 0.796875 2.828125q0.8125 0.9375 1.890625 0.9375q1.09375 0 1.859375 -0.890625q0.765625 -0.890625 0.765625 -2.734375q0 -2.015625 -0.78125 -2.953125q-0.78125 -0.953125 -1.921875 -0.953125q-1.109375 0 -1.859375 0.90625q-0.75 0.90625 -0.75 2.859375zm9.250732 4.921875l0 -9.859375l1.5 0l0 1.5q0.578125 -1.046875 1.0625 -1.375q0.484375 -0.34375 1.078125 -0.34375q0.84375 0 1.71875 0.546875l-0.578125 1.546875q-0.609375 -0.359375 -1.234375 -0.359375q-0.546875 0 -0.984375 0.328125q-0.421875 0.328125 -0.609375 0.90625q-0.28125 0.890625 -0.28125 1.953125l0 5.15625l-1.671875 0zm5.6032715 -4.921875q0 -2.734375 1.53125 -4.0625q1.265625 -1.09375 3.09375 -1.09375q2.03125 0 3.3125 1.34375q1.296875 1.328125 1.296875 3.671875q0 1.90625 -0.578125 3.0q-0.5625 1.078125 -1.65625 1.6875q-1.078125 0.59375 -2.375 0.59375q-2.0625 0 -3.34375 -1.328125q-1.28125 -1.328125 -1.28125 -3.8125zm1.71875 0q0 1.890625 0.828125 2.828125q0.828125 0.9375 2.078125 0.9375q1.25 0 2.0625 -0.9375q0.828125 -0.953125 0.828125 -2.890625q0 -1.828125 -0.828125 -2.765625q-0.828125 -0.9375 -2.0625 -0.9375q-1.25 0 -2.078125 0.9375q-0.828125 0.9375 -0.828125 2.828125zm9.297607 -6.765625l0 -1.90625l1.671875 0l0 1.90625l-1.671875 0zm0 11.6875l0 -9.859375l1.671875 0l0 9.859375l-1.671875 0zm10.519836 0l0 -1.25q-0.9375 1.46875 -2.75 1.46875q-1.171875 0 -2.171875 -0.640625q-0.984375 -0.65625 -1.53125 -1.8125q-0.53125 -1.171875 -0.53125 -2.6875q0 -1.46875 0.484375 -2.671875q0.5 -1.203125 1.46875 -1.84375q0.984375 -0.640625 2.203125 -0.640625q0.890625 0 1.578125 0.375q0.703125 0.375 1.140625 0.984375l0 -4.875l1.65625 0l0 13.59375l-1.546875 0zm-5.28125 -4.921875q0 1.890625 0.796875 2.828125q0.8125 0.9375 1.890625 0.9375q1.09375 0 1.859375 -0.890625q0.765625 -0.890625 0.765625 -2.734375q0 -2.015625 -0.78125 -2.953125q-0.78125 -0.953125 -1.921875 -0.953125q-1.109375 0 -1.859375 0.90625q-0.75 0.90625 -0.75 2.859375z" fill-rule="nonzero"></path><path fill="#f4cccc" d="m302.75592 218.29675l0 89.43799l-8.588104 8.588104l-42.93947 0l0 0l0 -106.61418l0 0l42.93947 0z" fill-rule="nonzero"></path><path stroke="#000000" stroke-width="2.0" stroke-linejoin="round" stroke-linecap="butt" d="m302.75592 218.29675l0 89.43799l-8.588104 8.588104l-42.93947 0l0 0l0 -106.61418l0 0l42.93947 0z" fill-rule="nonzero"></path><path fill="#000000" d="m278.9251 239.63771l13.59375 0l0 6.03125q0 1.8125 -0.359375 2.75q-0.359375 0.953125 -1.296875 1.515625q-0.921875 0.5625 -2.046875 0.5625q-1.453125 0 -2.453125 -0.9375q-0.984375 -0.921875 -1.25 -2.890625q-0.34375 0.71875 -0.671875 1.09375q-0.734375 0.78125 -1.8125 1.484375l-3.703125 2.375l0 -2.265625l2.828125 -1.796875q1.21875 -0.796875 1.875 -1.3125q0.65625 -0.5 0.90625 -0.90625q0.265625 -0.40625 0.359375 -0.8125q0.078125 -0.3125 0.078125 -1.015625l0 -2.078125l-6.046875 0l0 -1.796875zm7.59375 1.796875l0 3.859375q0 1.234375 0.25 1.921875q0.265625 0.703125 0.828125 1.0625q0.5625 0.375 1.21875 0.375q0.96875 0 1.578125 -0.703125q0.625 -0.703125 0.625 -2.21875l0 -4.296875l-4.5 0zm-7.59375 11.676071l13.59375 0l0 9.84375l-1.59375 0l0 -8.046875l-4.171875 0l0 7.53125l-1.59375 0l0 -7.53125l-4.625 0l0 8.359375l-1.609375 0l0 -10.15625zm4.375 11.802948l0.140625 1.6875q-1.015625 0.125 -1.671875 0.5625q-0.65625 0.4375 -1.0625 1.359375q-0.40625 0.9375 -0.40625 2.09375q0 1.03125 0.3125 1.8125q0.3125 0.796875 0.84375 1.1875q0.53125 0.390625 1.15625 0.390625q0.640625 0 1.109375 -0.375q0.484375 -0.375 0.8125 -1.234375q0.21875 -0.546875 0.65625 -2.421875q0.453125 -1.875 0.859375 -2.625q0.515625 -0.96875 1.265625 -1.453125q0.75 -0.46875 1.6875 -0.46875q1.03125 0 1.921875 0.578125q0.90625 0.59375 1.359375 1.703125q0.46875 1.125 0.46875 2.5q0 1.515625 -0.484375 2.671875q-0.484375 1.15625 -1.4375 1.765625q-0.9375 0.625 -2.140625 0.671875l-0.125 -1.71875q1.28125 -0.140625 1.9375 -0.953125q0.671875 -0.796875 0.671875 -2.359375q0 -1.625 -0.609375 -2.375q-0.59375 -0.75 -1.4375 -0.75q-0.734375 0 -1.203125 0.53125q-0.46875 0.515625 -0.96875 2.703125q-0.5 2.203125 -0.875 3.015625q-0.546875 1.1875 -1.390625 1.75q-0.828125 0.578125 -1.921875 0.578125q-1.09375 0 -2.0625 -0.625q-0.953125 -0.625 -1.484375 -1.796875q-0.53125 -1.15625 -0.53125 -2.609375q0 -1.84375 0.53125 -3.09375q0.546875 -1.25 1.625 -1.96875q1.078125 -0.703125 2.453125 -0.734375zm-4.375 16.506073l12.0 0l0 -4.46875l1.59375 0l0 10.765625l-1.59375 0l0 -4.5l-12.0 0l0 -1.796875z" fill-rule="nonzero"></path><path fill="#000000" d="m256.9251 247.94926l13.59375 5.234375l0 1.9375l-13.59375 5.5625153l0 -2.046875l4.125 -1.59375l0 -5.6875153l-4.125 -1.484375l0 -1.921875zm5.578125 3.921875l0 4.6093903l3.78125 -1.4062653q1.703125 -0.65625 2.8125 -0.96875q-1.3125 -0.265625 -2.59375 -0.734375l-4.0 -1.5zm-5.578125 10.021713l13.59375 0l0 5.125q0 1.359375 -0.125 2.078125q-0.171875 1.0 -0.640625 1.671875q-0.46875 0.671875 -1.3125 1.078125q-0.84375 0.421875 -1.84375 0.421875q-1.734375 0 -2.9375 -1.109375q-1.203125 -1.09375 -1.203125 -3.984375l0 -3.484375l-5.53125 0l0 -1.796875zm7.140625 1.796875l0 3.515625q0 1.75 0.640625 2.46875q0.65625 0.734375 1.828125 0.734375q0.859375 0 1.46875 -0.4375q0.609375 -0.421875 0.796875 -1.125q0.125 -0.453125 0.125 -1.671875l0 -3.484375l-4.859375 0zm-7.140625 10.943573l13.59375 0l0 1.8125l-13.59375 0l0 -1.8125z" fill-rule="nonzero"></path><path fill="#000000" fill-opacity="0.0" d="m302.75592 263.01575l420.72437 0" fill-rule="nonzero"></path><path stroke="#000000" stroke-width="8.0" stroke-linejoin="round" stroke-linecap="butt" d="m350.75592 263.01575l324.72437 0" fill-rule="evenodd"></path><path fill="#000000" stroke="#000000" stroke-width="8.0" stroke-linecap="butt" d="m350.7559 249.8019l-36.30478 13.213852l36.30478 13.213867z" fill-rule="evenodd"></path><path fill="#000000" stroke="#000000" stroke-width="8.0" stroke-linecap="butt" d="m675.48035 276.2296l36.30475 -13.213867l-36.30475 -13.213852z" fill-rule="evenodd"></path><path fill="#000000" fill-opacity="0.0" d="m379.19946 226.67717l292.75592 0l0 34.14174l-292.75592 0z" fill-rule="nonzero"></path><path fill="#000000" d="m489.81644 247.9253q0.71875 -0.03125 1.15625 -0.390625q0.453125 -0.359375 0.59375 -1.0q0.15625 -0.640625 0.15625 -2.1875q0.015625 -1.5625 0.0625 -2.046875q0.09375 -0.78125 0.3125 -1.25q0.234375 -0.484375 0.5625 -0.765625q0.34375 -0.28125 0.859375 -0.421875q0.34375 -0.09375 1.140625 -0.09375l0.53125 0l0 1.453125l-0.296875 0q-0.96875 0 -1.28125 0.34375q-0.3125 0.34375 -0.3125 1.5625q0 2.421875 -0.09375 3.0625q-0.171875 1.0 -0.578125 1.546875q-0.40625 0.53125 -1.265625 0.9375q1.015625 0.4375 1.46875 1.3125q0.46875 0.875 0.46875 2.859375q0 1.8125 0.03125 2.15625q0.078125 0.640625 0.375 0.890625q0.3125 0.25 1.1875 0.25l0.296875 0l0 1.453125l-0.53125 0q-0.90625 0 -1.3125 -0.15625q-0.59375 -0.203125 -0.984375 -0.6875q-0.390625 -0.46875 -0.515625 -1.203125q-0.109375 -0.734375 -0.125 -2.40625q0 -1.671875 -0.15625 -2.3125q-0.140625 -0.640625 -0.59375 -1.0q-0.4375 -0.375 -1.15625 -0.40625l0 -1.5zm11.42981 1.8125l1.625 -0.21875q0.0625 1.546875 0.578125 2.125q0.53125 0.578125 1.4375 0.578125q0.6875 0 1.171875 -0.3125q0.5 -0.3125 0.671875 -0.84375q0.1875 -0.53125 0.1875 -1.703125l0 -9.359375l1.8125 0l0 9.265625q0 1.703125 -0.421875 2.640625q-0.40625 0.9375 -1.3125 1.4375q-0.890625 0.484375 -2.09375 0.484375q-1.796875 0 -2.75 -1.03125q-0.9375 -1.03125 -0.90625 -3.0625zm9.640625 -0.515625l1.6875305 -0.140625q0.125 1.015625 0.5625 1.671875q0.4375 0.65625 1.359375 1.0625q0.9375 0.40625 2.09375 0.40625q1.03125 0 1.8125 -0.3125q0.796875 -0.3125 1.1875 -0.84375q0.390625 -0.53125 0.390625 -1.15625q0 -0.640625 -0.375 -1.109375q-0.375 -0.484375 -1.234375 -0.8125q-0.546875 -0.21875 -2.421875 -0.65625q-1.875 -0.453125 -2.625 -0.859375q-0.96875 -0.515625 -1.4531555 -1.265625q-0.46875 -0.75 -0.46875 -1.6875q0 -1.03125 0.578125 -1.921875q0.5937805 -0.90625 1.7031555 -1.359375q1.125 -0.46875 2.5 -0.46875q1.515625 0 2.671875 0.484375q1.15625 0.484375 1.765625 1.4375q0.625 0.9375 0.671875 2.140625l-1.71875 0.125q-0.140625 -1.28125 -0.953125 -1.9375q-0.796875 -0.671875 -2.359375 -0.671875q-1.625 0 -2.375 0.609375q-0.75 0.59375 -0.75 1.4375q0 0.734375 0.53125 1.203125q0.515625 0.46875 2.703125 0.96875q2.203125 0.5 3.015625 0.875q1.1875 0.546875 1.75 1.390625q0.578125 0.828125 0.578125 1.921875q0 1.09375 -0.625 2.0625q-0.625 0.953125 -1.796875 1.484375q-1.15625 0.53125 -2.609375 0.53125q-1.84375 0 -3.09375 -0.53125q-1.25 -0.546875 -1.9687805 -1.625q-0.703125 -1.078125 -0.734375 -2.453125zm12.506073 -2.25q0 -3.390625 1.8125 -5.296875q1.828125 -1.921875 4.703125 -1.921875q1.875 0 3.390625 0.90625q1.515625 0.890625 2.296875 2.5q0.796875 1.609375 0.796875 3.65625q0 2.0625 -0.84375 3.703125q-0.828125 1.625 -2.359375 2.46875q-1.53125 0.84375 -3.296875 0.84375q-1.921875 0 -3.4375 -0.921875q-1.5 -0.9375 -2.28125 -2.53125q-0.78125 -1.609375 -0.78125 -3.40625zm1.859375 0.03125q0 2.453125 1.3125 3.875q1.328125 1.40625 3.3125 1.40625q2.03125 0 3.34375 -1.421875q1.3125 -1.4375 1.3125 -4.0625q0 -1.65625 -0.5625 -2.890625q-0.546875 -1.234375 -1.640625 -1.921875q-1.078125 -0.6875 -2.421875 -0.6875q-1.90625 0 -3.28125 1.3125q-1.375 1.3125 -1.375 4.390625zm13.183289 6.59375l0 -13.59375l1.84375 0l7.140625 10.671875l0 -10.671875l1.71875 0l0 13.59375l-1.84375 0l-7.140625 -10.6875l0 10.6875l-1.71875 0zm23.015625 -5.671875l0 1.5q-0.71875 0.03125 -1.171875 0.40625q-0.453125 0.359375 -0.609375 1.0q-0.140625 0.625 -0.15625 2.1875q0 1.546875 -0.046875 2.03125q-0.078125 0.796875 -0.3125 1.265625q-0.21875 0.46875 -0.5625 0.75q-0.328125 0.28125 -0.84375 0.421875q-0.359375 0.109375 -1.15625 0.109375l-0.515625 0l0 -1.453125l0.28125 0q0.96875 0 1.28125 -0.359375q0.3125 -0.34375 0.3125 -1.5625q0 -2.3125 0.09375 -2.9375q0.140625 -1.03125 0.578125 -1.640625q0.453125 -0.625 1.28125 -0.96875q-1.078125 -0.5 -1.515625 -1.34375q-0.4375 -0.84375 -0.4375 -2.828125q0 -1.8125 -0.046875 -2.171875q-0.0625 -0.625 -0.359375 -0.859375q-0.296875 -0.25 -1.1875 -0.25l-0.28125 0l0 -1.453125l0.515625 0q0.90625 0 1.3125 0.140625q0.59375 0.203125 0.984375 0.6875q0.390625 0.484375 0.5 1.21875q0.125 0.734375 0.125 2.40625q0.015625 1.671875 0.15625 2.3125q0.15625 0.625 0.609375 1.0q0.453125 0.359375 1.171875 0.390625z" fill-rule="nonzero"></path><path fill="#000000" fill-opacity="0.0" d="m152.72441 206.2126l210.92912 -114.456696" fill-rule="nonzero"></path><path stroke="#0000ff" stroke-width="3.0" stroke-linejoin="round" stroke-linecap="butt" d="m152.72441 206.2126l195.10826 -105.8718" fill-rule="evenodd"></path><path fill="#0000ff" stroke="#0000ff" stroke-width="3.0" stroke-linecap="butt" d="m350.196 104.6961l9.602783 -10.84848l-14.329437 2.1378708z" fill-rule="evenodd"></path><path fill="#000000" fill-opacity="0.0" d="m596.8927 91.74771l217.03937 117.95276" fill-rule="nonzero"></path><path stroke="#0000ff" stroke-width="3.0" stroke-linejoin="round" stroke-linecap="butt" d="m596.8927 91.74771l201.22394 109.35771" fill-rule="evenodd"></path><path fill="#0000ff" stroke="#0000ff" stroke-width="3.0" stroke-linecap="butt" d="m795.75055 205.4592l14.328064 2.1470795l-9.595825 -10.854645z" fill-rule="evenodd"></path><path fill="#000000" fill-opacity="0.0" d="m141.93324 162.42542l183.2441 -94.83464l15.685028 30.330704l-183.24408 94.83464z" fill-rule="nonzero"></path><path fill="#000000" d="m165.13895 184.98483l-6.265793 -12.116379l1.3599243 -0.7037964l0.5885315 1.1380768q0.12730408 -0.9103699 0.5517578 -1.5522766q0.43830872 -0.6490936 1.28479 -1.0871735q1.1240234 -0.5817108 2.2858276 -0.44406128q1.1546326 0.1237793 2.1302795 0.9559479q0.9895325 0.82499695 1.635498 2.0740967q0.6961975 1.3462677 0.77033997 2.680191q0.066970825 1.3200378 -0.55462646 2.3630676q-0.6215973 1.0430298 -1.6345978 1.5672913q-0.7493439 0.38781738 -1.503952 0.39128113q-0.74790955 -0.017578125 -1.3666077 -0.29556274l2.2034454 4.260849l-1.4848175 0.7684479zm-2.630188 -8.38559q0.87564087 1.6932373 1.971878 2.1463165q1.1101227 0.44589233 2.0814972 -0.05682373q0.98524475 -0.5098877 1.2484436 -1.7017212q0.27708435 -1.1990051 -0.6344452 -2.9616394q-0.8612671 -1.6654816 -1.9857483 -2.1391296q-1.1105957 -0.48085022 -2.0681 0.014694214q-0.9436188 0.4883423 -1.2197266 1.7572327q-0.2622528 1.2617035 0.6062012 2.9410706zm7.29216 -3.826706q-1.2560272 -2.428833 -0.5061798 -4.3123474q0.62161255 -1.5532532 2.2451782 -2.393509q1.8039856 -0.933609 3.5591278 -0.3289032q1.7618408 0.5836334 2.83844 2.6654816q0.8756256 1.6932373 0.86460876 2.9304962q-0.004333496 1.2161865 -0.6958008 2.2601776q-0.6847534 1.0229492 -1.8365173 1.6190186q-1.8317413 0.9479828 -3.5796967 0.35716248q-1.7479706 -0.5908203 -2.8891602 -2.797577zm1.5264435 -0.7899933q0.868454 1.6793671 2.0345612 2.131485q1.1661072 0.45210266 2.276245 -0.122421265q1.1101379 -0.5745392 1.4010925 -1.7807312q0.2976532 -1.2272491 -0.59233093 -2.9482422q-0.8397522 -1.6238403 -2.0058594 -2.0759583q-1.1661072 -0.45210266 -2.2623596 0.115249634q-1.1101532 0.5745239 -1.414978 1.7879028q-0.30482483 1.2133636 0.56362915 2.8927155zm12.127853 -0.7346039l-7.2070923 -7.371582l1.5264435 -0.7899933l4.0002136 4.3338013l1.5034332 1.6146393q-0.044021606 -0.15315247 -0.4889984 -2.0340881l-1.2540436 -5.8605804l1.5264435 -0.789978l3.931305 4.4046326l1.2986298 1.4567413l-0.36218262 -1.9589691l-1.1210327 -5.841461l1.4431915 -0.7468872l1.7951508 10.17244l-1.5403137 0.7971649l-4.1145782 -4.52092l-1.1010132 -1.3126831l1.704773 7.6505585l-1.540329 0.7971649zm4.9871674 -15.740936l-0.8756256 -1.6932373l1.4848022 -0.7684479l0.87564087 1.6932373l-1.4848175 0.7684479zm5.368622 10.3815l-4.528885 -8.75766l1.4848175 -0.7684326l4.528885 8.757645l-1.4848175 0.7684479zm8.824585 -5.9393005q-0.466568 1.1387329 -1.0790558 1.82518q-0.6196747 0.6725769 -1.4939117 1.1250153q-1.429306 0.7397156 -2.565277 0.447937q-1.1431427 -0.30566406 -1.710144 -1.4020996q-0.33732605 -0.65231323 -0.31866455 -1.3305359q0.018676758 -0.6782074 0.32540894 -1.2416077q0.30673218 -0.56340027 0.8173065 -1.0387573q0.37945557 -0.35472107 1.2034607 -0.90431213q1.6891327 -1.1556854 2.384903 -1.8852234q-0.15791321 -0.30534363 -0.20097351 -0.38861084q-0.46652222 -0.9021454 -1.0766144 -1.0614166q-0.82733154 -0.2052002 -1.9513397 0.37651062q-1.0407562 0.53862 -1.353714 1.15802q-0.31295776 0.6194 -0.060806274 1.685257l-1.5647125 0.5458832q-0.2727356 -1.0376129 -0.12294006 -1.8364716q0.16365051 -0.8060303 0.8522339 -1.5494537q0.695282 -0.7644806 1.8331757 -1.3533783q1.1240234 -0.5817108 1.9542236 -0.6770935q0.83021545 -0.09538269 1.3713989 0.13475037q0.5411835 0.23013306 0.98187256 0.7761688q0.27705383 0.33164978 0.78663635 1.3170624l1.0263519 1.9846954q1.0694275 2.067978 1.4397736 2.5800476q0.37705994 0.4909973 0.92684937 0.8398285l-1.5541992 0.8043518q-0.4727478 -0.33592224 -0.85124207 -0.93174744zm-1.8330841 -3.2385712q-0.6397705 0.7357483 -2.1413422 1.8119507q-0.8512726 0.5989075 -1.1398163 0.9593506q-0.2885437 0.36045837 -0.33161926 0.7873993q-0.04307556 0.42694092 0.15789795 0.81555176q0.30862427 0.59680176 0.9608154 0.7694855q0.658905 0.15161133 1.5192566 -0.2936554q0.8603668 -0.44526672 1.3326569 -1.1647186q0.4651184 -0.73332214 0.45413208 -1.5369415q-0.029663086 -0.63560486 -0.532074 -1.607132l-0.27990723 -0.5412903zm11.566086 -0.42626953l-0.57418823 -1.110321q-0.15792847 1.7355194 -1.7676392 2.5685883q-1.0407562 0.53863525 -2.2231293 0.42921448q-1.1756897 -0.1304779 -2.1924896 -0.90615845q-1.0101166 -0.7967529 -1.7063141 -2.1430206q-0.67466736 -1.3046265 -0.7971344 -2.595932q-0.1085968 -1.2984924 0.457489 -2.3128052q0.5799713 -1.0214844 1.6623535 -1.5816498q0.79096985 -0.4093628 1.5738068 -0.3922577q0.79670715 0.009933472 1.4651794 0.35012817l-2.2393188 -4.330261l1.470932 -0.7612457l6.2442474 12.074738l-1.3737946 0.7109833zm-6.951187 -1.9444885q0.868454 1.6793518 2.0068054 2.1458282q1.1522217 0.4593048 2.109726 -0.036239624q0.9713745 -0.50271606 1.242218 -1.6457214q0.27085876 -1.1430054 -0.57606506 -2.7807312q-0.9258728 -1.79039 -2.0503387 -2.264038q-1.1316681 -0.48753357 -2.1446686 0.036712646q-0.98524475 0.50990295 -1.2350464 1.6596069q-0.24980164 1.149704 0.6473694 2.8845825zm7.6744843 -3.9717865q-1.2560425 -2.428833 -0.5061798 -4.3123474q0.6215973 -1.5532532 2.2451782 -2.393509q1.8039856 -0.933609 3.5591278 -0.32891846q1.7618408 0.5836487 2.83844 2.6654968q0.8756256 1.6932373 0.8645935 2.9304962q-0.0043182373 1.2161865 -0.6957855 2.2601776q-0.6847534 1.0229492 -1.8365326 1.6190186q-1.8317261 0.9479828 -3.5796967 0.35716248q-1.7479553 -0.5908203 -2.889145 -2.797577zm1.5264435 -0.7899933q0.868454 1.6793671 2.0345612 2.131485q1.1660919 0.45210266 2.276245 -0.122421265q1.1101379 -0.5745392 1.4010925 -1.7807312q0.2976532 -1.2272491 -0.5923462 -2.9482422q-0.83973694 -1.6238403 -2.005844 -2.0759583q-1.1661072 -0.45210266 -2.2623749 0.115249634q-1.1101379 0.5745239 -1.4149628 1.7878876q-0.30482483 1.2133789 0.56362915 2.8927307zm10.504272 0.105651855l-4.528885 -8.757645l1.3321686 -0.6894531l0.63879395 1.2352448q0.072265625 -0.8467102 0.5512543 -1.5872192q0.4857025 -0.7615814 1.3599396 -1.2140198q0.9713745 -0.50271606 1.8039703 -0.42340088q0.8325958 0.079315186 1.4627686 0.6856384q0.24407959 -2.079193 1.9092865 -2.9409943q1.3044128 -0.67507935 2.3714752 -0.31245422q1.0809326 0.35543823 1.8560791 1.8543701l3.1077728 6.009613l-1.4848022 0.7684479l-2.8493958 -5.5099792q-0.4593506 -0.8882446 -0.7990875 -1.2050476q-0.34690857 -0.33067322 -0.85746765 -0.3655243q-0.49668884 -0.042037964 -1.0101318 0.22367859q-0.91586304 0.47398376 -1.2106323 1.40065q-0.29478455 0.9266815 0.40859985 2.2868195l2.626892 5.079712l-1.4848175 0.7684479l-2.942688 -5.690399q-0.5095978 -0.9854126 -1.1215973 -1.2844543q-0.61917114 -0.312912 -1.4517822 0.11798096q-0.6244507 0.32318115 -0.99339294 0.9363556q-0.36224365 0.5921173 -0.2679901 1.3526459q0.09425354 0.76052856 0.7115021 1.9541168l2.3469849 4.538437l-1.4848175 0.7684326zm8.447235 -17.531647l-0.87564087 -1.6932373l1.4848175 -0.7684326l0.8756256 1.6932373l-1.4848022 0.7684326zm5.368622 10.3815l-4.528885 -8.757645l1.4848175 -0.7684479l4.528885 8.75766l-1.4848175 0.7684326zm8.204956 -7.817795l1.6269226 -0.5956726q0.3282318 1.519104 -0.2694397 2.778473q-0.59098816 1.2382965 -2.1174316 2.0282745q-1.9149933 0.9910736 -3.6490784 0.3930664q-1.7340851 -0.59799194 -2.839386 -2.7353668q-1.1411896 -2.2067566 -0.64878845 -4.0098267q0.5063019 -1.8102417 2.3241577 -2.7510529q1.7623444 -0.9120636 3.4897308 -0.29299927q1.7273865 0.61906433 2.8542328 2.7980652q0.064590454 0.12490845 0.18708801 0.39579773l-6.5220795 3.3753815q0.82969666 1.4003143 1.9599152 1.7830353q1.1302185 0.38272095 2.2264862 -0.18463135q0.80485535 -0.41653442 1.1584778 -1.1273499q0.3603363 -0.7318878 0.2191925 -1.8551941zm-6.1124115 0.11968994l4.884613 -2.5279388q-0.6641388 -1.0461731 -1.4091644 -1.3643341q-1.15271 -0.49424744 -2.2906036 0.09465027q-1.0130005 0.5242615 -1.3618622 1.5844879q-0.34214783 1.039154 0.17701721 2.2131348zm10.789444 1.0312653l-4.5288696 -8.757652l1.3321686 -0.68943787l0.6459503 1.249115q0.22492981 -1.9461365 2.0427856 -2.8869324q0.7909851 -0.40935516 1.6077881 -0.46261597q0.80963135 -0.06713867 1.372818 0.23957062q0.5699005 0.28564453 1.0316467 0.8383789q0.29858398 0.3732834 0.8297119 1.4003296l2.78479 5.3850555l-1.4848328 0.7684326l-2.756073 -5.3295364q-0.46652222 -0.9021301 -0.8766022 -1.2528992q-0.4033661 -0.37182617 -0.98379517 -0.40571594q-0.5804291 -0.03388977 -1.177124 0.27492523q-0.9436188 0.4883499 -1.3288269 1.4442291q-0.3713379 0.94869995 0.5042877 2.6419373l2.4689941 4.7743835l-1.4848175 0.7684326zm3.8600616 -15.157631l-0.87564087 -1.6932373l1.4848328 -0.76844025l0.87561035 1.6932449l-1.4848022 0.7684326zm5.368622 10.381508l-4.5288696 -8.75766l1.4848022 -0.76844025l4.5288696 8.757652l-1.4848022 0.7684479zm8.824585 -5.9393005q-0.46655273 1.1387253 -1.079071 1.82518q-0.6196594 0.6725693 -1.4938965 1.1250153q-1.4293213 0.7397156 -2.565277 0.447937q-1.1431274 -0.30566406 -1.710144 -1.4020996q-0.3373413 -0.65231323 -0.31866455 -1.3305359q0.018676758 -0.678215 0.32540894 -1.2416077q0.30673218 -0.56339264 0.81729126 -1.0387573q0.37948608 -0.35472107 1.2034607 -0.90431976q1.689148 -1.1556778 2.3849182 -1.8852158q-0.15789795 -0.30534363 -0.20098877 -0.38861847q-0.46652222 -0.9021301 -1.0765991 -1.0614166q-0.82733154 -0.20519257 -1.951355 0.37651825q-1.040741 0.5386276 -1.3536987 1.15802q-0.31295776 0.6193924 -0.060791016 1.685257l-1.5647278 0.5458832q-0.2727356 -1.0376129 -0.12295532 -1.8364716q0.16366577 -0.8060303 0.8522644 -1.5494537q0.695282 -0.76447296 1.8331604 -1.3533707q1.1240234 -0.58171844 1.9542236 -0.67710114q0.8302002 -0.09538269 1.3713989 0.13475037q0.5411682 0.23013306 0.98187256 0.77617645q0.27703857 0.33164215 0.7866211 1.3170471l1.0263672 1.9847031q1.0694275 2.0679703 1.4397583 2.58004q0.3770752 0.49101257 0.92684937 0.83984375l-1.5541992 0.8043442q-0.4727478 -0.33592224 -0.8512268 -0.93174744zm-1.8330994 -3.2385712q-0.6397705 0.7357559 -2.141327 1.8119507q-0.85128784 0.59889984 -1.1398315 0.9593582q-0.2885437 0.36045074 -0.331604 0.78739166q-0.043060303 0.42694092 0.15789795 0.81555176q0.30862427 0.59680176 0.9608154 0.76947784q0.658905 0.15161896 1.5192566 -0.29364777q0.86035156 -0.4452591 1.3326416 -1.164711q0.4651184 -0.7333374 0.45413208 -1.5369492q-0.029632568 -0.6356125 -0.53204346 -1.6071396l-0.27993774 -0.54128265zm10.688141 0.02809906l-6.2442627 -12.074738l4.5515747 -2.3555908q1.2072754 -0.62480164 1.9030457 -0.84412384q0.967041 -0.30696106 1.7790833 -0.19940186q0.8120117 0.107559204 1.5603638 0.67030334q0.76226807 0.5555649 1.2216187 1.4438171q0.7966614 1.5405731 0.3640747 3.119156q-0.4187317 1.5713959 -2.9859314 2.9000015l-3.094513 1.6015167l2.5407715 4.91317l-1.5958252 0.8258896zm-1.6842041 -7.168602l3.122284 -1.6158752q1.5541687 -0.8043442 1.8982544 -1.7037354q0.35073853 -0.92046356 -0.18756104 -1.9613876q-0.39474487 -0.7633438 -1.0632019 -1.1035385q-0.65460205 -0.34737396 -1.3651733 -0.19075012q-0.45983887 0.09723663 -1.5422363 0.65740967l-3.094513 1.6015091l2.2321472 4.316368zm14.414856 -14.726265l1.5958252 -0.8258896l3.6030273 6.9672623q0.9473877 1.8320312 1.0837402 3.1161652q0.15023804 1.2769547 -0.58047485 2.5171967q-0.723999 1.2191772 -2.4724731 2.1240692q-1.6929626 0.87615967 -3.0767822 0.8534088q-1.3838501 -0.022743225 -2.4159546 -0.8960724q-1.032135 -0.87332916 -2.0297546 -2.8025055l-3.6030273 -6.9672623l1.5958252 -0.8258972l3.6030273 6.9672623q0.81103516 1.5683289 1.4900208 2.1669846q0.6789856 0.5986481 1.5948486 0.63488007q0.929718 0.029045105 1.956604 -0.50240326q1.7623291 -0.9120712 2.1025696 -2.0909805q0.33306885 -1.1927948 -0.84399414 -3.4689484l-3.6030273 -6.96727zm7.7352905 6.376915l1.434082 -0.9005356q0.57754517 0.8446808 1.2675476 1.2265167q0.69000244 0.3818283 1.695343 0.31896973q1.0191956 -0.07004547 2.0460815 -0.60149384q0.91586304 -0.47398376 1.466156 -1.1106491q0.56417847 -0.6438446 0.6670532 -1.2952728q0.10290527 -0.6514282 -0.1842041 -1.2065887q-0.2942505 -0.5690384 -0.84262085 -0.8130493q-0.555542 -0.2578888 -1.4694824 -0.15435791q-0.58618164 0.057052612 -2.4523315 0.5302353q-1.873352 0.45931244 -2.7260437 0.44317627q-1.097229 -0.012741089 -1.8719177 -0.45630646q-0.7608032 -0.450737 -1.1914368 -1.2834778q-0.47372437 -0.9160156 -0.36938477 -1.9728394q0.11102295 -1.0778885 0.8881531 -1.9902802q0.78378296 -0.9334488 2.0049438 -1.5654373q1.3460388 -0.6966171 2.5954285 -0.7978134q1.2493896 -0.10119629 2.2283936 0.46533966q0.9857178 0.5454788 1.5799866 1.5926132l-1.4690247 0.90101624q-0.71343994 -1.0734406 -1.7364807 -1.2829132q-1.0163269 -0.23053741 -2.4039917 0.48763275q-1.4432068 0.74689484 -1.8293762 1.6328964q-0.39334106 0.8721161 -0.0057678223 1.621582q0.3373413 0.65231323 1.0244751 0.82450867q0.6732483 0.1793747 2.8456726 -0.3819275q2.1862793 -0.5684891 3.0801392 -0.6088333q1.3058472 -0.060043335 2.1929626 0.43088531q0.89385986 0.4698639 1.3962708 1.441391q0.5024109 0.9715347 0.39233398 2.1193008q-0.117248535 1.1338882 -0.91400146 2.144394q-0.7828369 1.003334 -2.0733643 1.6712265q-1.6374817 0.847435 -2.9916382 0.9500809q-1.3613586 0.088768005 -2.4949036 -0.53852844q-1.11969 -0.6344757 -1.7790527 -1.8414612zm13.643768 -2.134903l-6.2442627 -12.074738l1.6097107 -0.8330765l2.5622864 4.954811l6.2723083 -3.2461166l-2.562317 -4.9548035l1.5958252 -0.8258896l6.2442627 12.074738l-1.5958252 0.8258896l-2.942688 -5.6903915l-6.2723083 3.246109l2.942688 5.6903915l-1.6096802 0.8330765z" fill-rule="nonzero"></path><path fill="#000000" fill-opacity="0.0" d="m626.76666 62.060547l180.47241 100.031494l-16.5354 29.858276l-180.47247 -100.0315z" fill-rule="nonzero"></path><path fill="#000000" d="m620.8579 93.88736l6.6083984 -11.932945l1.3392944 0.7423248l-0.62072754 1.1208496q0.8280029 -0.39855957 1.59729 -0.40089417q0.78302 0.0052337646 1.6166382 0.46730042q1.1069336 0.6135559 1.6363525 1.6572876q0.53692627 1.0300598 0.3852539 2.3037186q-0.13800049 1.2812271 -0.8192749 2.5114288q-0.7342529 1.325882 -1.8030396 2.1269379q-1.0611572 0.78739166 -2.2734985 0.8478775q-1.2123413 0.06048584 -2.209961 -0.4924698q-0.7379761 -0.40904236 -1.1590576 -1.0354767q-0.39990234 -0.6325226 -0.5114746 -1.3017883l-2.3239746 4.19635l-1.4622192 -0.8105011zm5.519226 -6.8378143q-0.9234619 1.6676102 -0.6928711 2.8315659q0.2442627 1.1715393 1.2008667 1.7017746q0.9702759 0.5378113 2.107788 0.09642029q1.1511841 -0.43382263 2.1125488 -2.1697693q0.9083252 -1.640274 0.67926025 -2.8391418q-0.2154541 -1.1912994 -1.1584473 -1.7139664q-0.9293213 -0.5150833 -2.1380615 -0.041740417q-1.1951294 0.48091888 -2.111084 2.1348572zm7.225403 3.9512634q1.324707 -2.3920593 3.307434 -2.8115845q1.6368408 -0.34326172 3.2357788 0.54299164q1.7766113 0.9847183 2.2462158 2.7813797q0.49084473 1.7905655 -0.6445923 3.8408966q-0.92352295 1.6676102 -1.9590454 2.344162q-1.0143433 0.67046356 -2.2661743 0.67331696q-1.2305908 -0.0032424927 -2.3648682 -0.631958q-1.8039551 -0.9998703 -2.281128 -2.7828598q-0.4772339 -1.7829895 0.7263794 -3.9563446zm1.5032959 0.83322906q-0.9159546 1.6539383 -0.645813 2.875534q0.27008057 1.2215958 1.3634033 1.8275833q1.0932617 0.6059799 2.2581177 0.1797409q1.1860352 -0.43234253 2.1246948 -2.1272812q0.88568115 -1.599266 0.61553955 -2.8208618q-0.27008057 -1.2215958 -1.3497314 -1.8200073q-1.0932617 -0.60598755 -2.2717896 -0.1873169q-1.1784668 0.41867065 -2.0944214 2.072609zm7.3327637 9.691734l2.138977 -10.087013l1.5032349 0.83322906l-1.388794 5.732956l-0.51013184 2.1468124q0.103027344 -0.121536255 1.4213867 -1.5345612l4.1810913 -4.2924347l1.5032349 0.83322906l-1.4859009 5.7148438l-0.49230957 1.8887558l1.4291992 -1.3873367l4.2388916 -4.1710663l1.4212646 0.78778076l-7.46875 7.1328354l-1.5169678 -0.84080505l1.4811401 -5.9319l0.48199463 -1.6443634l-5.4206543 5.6598434l-1.5169067 -0.84080505zm15.860779 -4.5715027l0.92352295 -1.6676025l1.4622803 0.8105011l-0.92352295 1.6676102l-1.4622803 -0.8105087zm-5.6621704 10.224335l4.7764893 -8.625069l1.4622803 0.8105011l-4.7765503 8.625076l-1.4622192 -0.8105087zm9.832397 4.056427q-1.2060547 0.24263 -2.1166382 0.11306q-0.90301514 -0.14323425 -1.763977 -0.62044525q-1.4076538 -0.7802048 -1.7944336 -1.8878403q-0.37927246 -1.1212997 0.21875 -2.201149q0.35577393 -0.64243317 0.9304199 -1.0027847q0.574646 -0.36034393 1.2133789 -0.41718292q0.63879395 -0.05684662 1.3172607 0.10484314q0.5054321 0.119377136 1.4193726 0.5009079q1.8977661 0.7660217 2.8903198 0.9410324q0.16656494 -0.3007126 0.2119751 -0.38272858q0.4920044 -0.8884735 0.286438 -1.4847794q-0.28778076 -0.80265045 -1.3947754 -1.4162064q-1.0249634 -0.5681076 -1.7137451 -0.4854126q-0.68878174 0.08270264 -1.435852 0.8834152l-1.3214111 -1.0003891q0.7121582 -0.8021927 1.4598389 -1.120224q0.76135254 -0.31045532 1.7615356 -0.14910889q1.0214233 0.15525055 2.1420288 0.77638245q1.1069336 0.61356354 1.6464233 1.2520065q0.53948975 0.6384506 0.6479492 1.2166443q0.10845947 0.57819366 -0.101623535 1.2478027q-0.12237549 0.414505 -0.6598511 1.3849945l-1.0824585 1.9546585q-1.1279297 2.0366592 -1.3486938 2.628868q-0.19958496 0.586113 -0.18511963 1.2372589l-1.5305786 -0.8483734q0.017456055 -0.57984924 0.3034668 -1.2252502zm1.6785889 -3.3213654q-0.96673584 -0.12495422 -2.694336 -0.7788391q-0.9700928 -0.37691498 -1.4299316 -0.41740417q-0.45983887 -0.040496826 -0.8389282 0.16026306q-0.37908936 0.20076752 -0.59106445 0.5834961q-0.3255005 0.5877609 -0.107666016 1.2265549q0.23901367 0.63269806 1.0863037 1.1023331q0.84729004 0.469635 1.7076416 0.46417236q0.86798096 -0.01914215 1.5304565 -0.47369385q0.5124512 -0.376976 1.0422974 -1.3338013l0.29522705 -0.53308105zm6.7648926 9.394836l0.6055908 -1.0935135q-1.5315552 0.83039093 -3.1168213 -0.048286438q-1.0249634 -0.56811523 -1.5892334 -1.613327q-0.5430298 -1.0513077 -0.46118164 -2.327919q0.10308838 -1.2827148 0.83740234 -2.6085968q0.71154785 -1.284874 1.7180786 -2.102562q1.0201416 -0.810112 2.1778564 -0.9009018q1.1713257 -0.08320618 2.2372437 0.5076294q0.7789917 0.4317627 1.1986084 1.0931015q0.43328857 0.6689224 0.52075195 1.4141083l2.3617554 -4.264702l1.4486084 0.80293274l-6.5856934 11.891937l-1.3529663 -0.7499008zm-2.2346802 -6.8659897q-0.9159546 1.6539383 -0.67315674 2.8603897q0.25646973 1.2140198 1.1994019 1.7366791q0.95666504 0.5302429 2.0578003 0.122276306q1.1010742 -0.40795898 1.9943237 -2.0208893q0.97650146 -1.7632904 0.7473755 -2.9621658q-0.22155762 -1.2125397 -1.2191772 -1.7655029q-0.9702759 -0.5378113 -2.0653076 -0.10860443q-1.0950317 0.42920685 -2.0412598 2.1378174zm7.5579834 4.1892166q1.3247681 -2.3920593 3.307434 -2.8115845q1.6368408 -0.34326172 3.2357788 0.54299164q1.7766113 0.9847183 2.2462158 2.7813797q0.49090576 1.7905655 -0.6445923 3.8408966q-0.92352295 1.6676102 -1.9590454 2.344162q-1.0142822 0.67046356 -2.2661743 0.67331696q-1.2305908 -0.003250122 -2.3648682 -0.631958q-1.8039551 -0.9998703 -2.281128 -2.7828598q-0.47717285 -1.7829895 0.7263794 -3.9563446zm1.5032959 0.83322906q-0.9159546 1.6539307 -0.645813 2.875534q0.27008057 1.2215958 1.3634033 1.8275833q1.0932617 0.6059799 2.2581177 0.1797409q1.1860352 -0.43234253 2.1246948 -2.1272812q0.88568115 -1.599266 0.61553955 -2.8208618q-0.27008057 -1.2216034 -1.3497314 -1.8200073q-1.0932617 -0.60598755 -2.2717896 -0.1873169q-1.1784668 0.41867065 -2.0944214 2.072609zm5.7338257 8.805481l4.7765503 -8.625076l1.3119507 0.7271805l-0.67370605 1.2165298q0.74450684 -0.40909576 1.6260986 -0.42066193q0.90283203 -0.017654419 1.763794 0.45955658q0.95666504 0.5302353 1.3521118 1.2675018q0.39544678 0.7372589 0.24023438 1.5980606q1.8651733 -0.9491348 3.505127 -0.040161133q1.2846069 0.7120285 1.5742798 1.8015518q0.30334473 1.0970993 -0.51416016 2.5733414l-3.277771 5.918625l-1.4622192 -0.8105011l3.005188 -5.426544q0.48443604 -0.8748169 0.5597534 -1.3332901q0.08288574 -0.47214508 -0.17108154 -0.9166107q-0.24029541 -0.43688965 -0.7459717 -0.7171631q-0.90197754 -0.49993134 -1.8363647 -0.23179626q-0.9343262 0.2681427 -1.6762085 1.6076965l-2.7705078 5.0028152l-1.4622803 -0.8105011l3.1035767 -5.604248q0.5374756 -0.97049713 0.44708252 -1.6458511q-0.08276367 -0.6890259 -0.902771 -1.1435165q-0.61499023 -0.3408661 -1.3295898 -0.30822754q-0.6934204 0.026542664 -1.2739868 0.52654266q-0.5805054 0.49999237 -1.2315063 1.6755219l-2.4753418 4.4697266l-1.4622803 -0.8105011zm19.268372 -2.6827774l0.92352295 -1.6676025l1.4622803 0.8105011l-0.92352295 1.6676025l-1.4622803 -0.8105011zm-5.6622314 10.224335l4.7765503 -8.625076l1.4622803 0.8105087l-4.7765503 8.625069l-1.4622803 -0.8105011zm11.052002 2.4993134l1.3972778 1.0245972q-1.0820312 1.1152649 -2.4611206 1.315567q-1.3577881 0.19421387 -2.861084 -0.63900757q-1.8859253 -1.0453186 -2.3494263 -2.8207397q-0.463562 -1.7754059 0.7022095 -3.8804169q1.2036133 -2.1733627 2.9766846 -2.7626648q1.7868042 -0.5817337 3.5770264 0.41056824q1.7355957 0.961998 2.1779175 2.743515q0.44226074 1.7815094 -0.7462158 3.9275208q-0.068115234 0.12301636 -0.22558594 0.3751526l-6.4230957 -3.5601501q-0.70526123 1.4670105 -0.39727783 2.6202698q0.3079834 1.153244 1.3875732 1.7516632q0.7926636 0.43933105 1.5800171 0.3398285q0.8086548 -0.10559082 1.6651001 -0.8457031zm-3.4872437 -5.0234833l4.810486 2.666336q0.50231934 -1.1328583 0.35412598 -1.929596q-0.22766113 -1.2337799 -1.3482666 -1.8549194q-0.9976196 -0.5529556 -2.073059 -0.25582886q-1.0542603 0.29104614 -1.7432861 1.3740082zm5.121704 9.555969l4.7765503 -8.625076l1.3119507 0.7271881l-0.6812744 1.2301941q1.7438965 -0.8913269 3.5341187 0.10096741q0.7789917 0.4317627 1.276001 1.0823975q0.50457764 0.63697815 0.56152344 1.27594q0.078186035 0.63287354 -0.12579346 1.3237152q-0.14508057 0.45552063 -0.70526123 1.4670105l-2.9370728 5.303543l-1.4622803 -0.81051636l2.9067993 -5.2488556q0.49206543 -0.8884735 0.5565796 -1.4243469q0.08581543 -0.5419769 -0.2076416 -1.0440826q-0.29351807 -0.50209045 -0.88116455 -0.8278198q-0.92926025 -0.5150757 -1.9381104 -0.3060608q-0.9951172 0.21659851 -1.9186401 1.884201l-2.604004 4.7021027l-1.4622803 -0.8105011zm14.750793 -5.186737l0.92352295 -1.6676178l1.4622803 0.8105011l-0.92352295 1.6676178l-1.4622803 -0.8105011zm-5.6621704 10.224335l4.7765503 -8.625076l1.4622803 0.8105011l-4.7765503 8.625076l-1.4622803 -0.8105011zm9.832397 4.056427q-1.2059937 0.24261475 -2.1166382 0.11305237q-0.90301514 -0.14323425 -1.763977 -0.6204529q-1.4075928 -0.78019714 -1.7944336 -1.8878326q-0.37927246 -1.1213074 0.21875 -2.2011414q0.35577393 -0.6424408 0.9304199 -1.0027924q0.574646 -0.36035156 1.21344 -0.41719055q0.6387329 -0.05683899 1.3171997 0.10484314q0.5054321 0.119384766 1.4194336 0.5009155q1.8977051 0.7660217 2.8903198 0.94104004q0.1665039 -0.3007202 0.21191406 -0.3827362q0.49206543 -0.8884735 0.286438 -1.484787q-0.28778076 -0.8026428 -1.3947144 -1.4161987q-1.0249634 -0.56811523 -1.7138062 -0.4854126q-0.68878174 0.08270264 -1.435852 0.8834076l-1.3214111 -1.0003815q0.71221924 -0.8022003 1.4598999 -1.120224q0.7612915 -0.31045532 1.7614746 -0.14910889q1.0214233 0.15524292 2.1420288 0.77638245q1.1069336 0.6135559 1.6464233 1.2520142q0.53948975 0.638443 0.6479492 1.216629q0.10845947 0.5782013 -0.101623535 1.2478027q-0.12237549 0.414505 -0.65979004 1.3850098l-1.0825195 1.9546509q-1.1278687 2.0366669 -1.3486938 2.6288605q-0.19952393 0.5861206 -0.1850586 1.2372589l-1.5306396 -0.8483734q0.01751709 -0.57984924 0.3034668 -1.225235zm1.6786499 -3.3213806q-0.9667969 -0.12495422 -2.694397 -0.7788391q-0.9700928 -0.37690735 -1.4299316 -0.41740417q-0.45977783 -0.040496826 -0.8389282 0.16027832q-0.37908936 0.20075989 -0.5910034 0.58348083q-0.3255005 0.58776855 -0.10772705 1.2265625q0.23901367 0.6326904 1.0863037 1.1023254q0.8473511 0.46965027 1.7077026 0.46417236q0.8679199 -0.019134521 1.5304565 -0.4736786q0.51239014 -0.37698364 1.0422974 -1.3338013l0.29522705 -0.5330963zm5.9002075 8.915588l6.5857544 -11.891937l4.482483 2.4845428q1.1889648 0.6589966 1.757019 1.1167908q0.79138184 0.6351471 1.1519165 1.3709259q0.36053467 0.73579407 0.30706787 1.6708527q-0.039733887 0.9426422 -0.52423096 1.8174438q-0.84020996 1.5172577 -2.3934326 2.031952q-1.5394897 0.5222626 -4.067688 -0.8790741l-3.0475464 -1.6891785l-2.6797485 4.838791l-1.5715942 -0.871109zm5.031006 -5.37558l3.0748901 1.7043304q1.5305786 0.8483734 2.4696045 0.6363983q0.9602051 -0.21807861 1.5279541 -1.2432556q0.41638184 -0.7517853 0.32891846 -1.4969635q-0.07373047 -0.73760986 -0.5979004 -1.2425079q-0.3357544 -0.32901 -1.4017334 -0.9198456l-3.0475464 -1.6891785l-2.354187 4.2510223zm20.241638 3.841339l1.5715942 0.871109l-3.8000488 6.861786q-0.99920654 1.8042908 -1.9920654 2.629547q-0.979187 0.83283997 -2.4160767 0.91178894q-1.4156494 0.07284546 -3.1375732 -0.88157654q-1.6672363 -0.9241333 -2.4152832 -2.0890656q-0.7480469 -1.164917 -0.5934448 -2.5084076q0.15460205 -1.3434753 1.2068481 -3.243454l3.7999878 -6.861786l1.5716553 0.87109375l-3.8000488 6.861801q-0.8554077 1.5445709 -0.97717285 2.4417725q-0.12176514 0.8971863 0.35565186 1.6799011q0.4911499 0.7902832 1.5024414 1.3508301q1.7355957 0.96199036 2.9050293 0.5919037q1.177002 -0.38375854 2.418457 -2.6254578l3.8000488 -6.861786zm-1.0186768 9.97554l1.5440674 0.6950531q-0.38269043 0.9490814 -0.31799316 1.73526q0.0647583 0.78619385 0.6742554 1.588501q0.6231079 0.8098755 1.6343994 1.3704071q0.90197754 0.49993896 1.7366943 0.6053009q0.8483887 0.11294556 1.4473877 -0.16242981q0.59906006 -0.27537537 0.90179443 -0.8221283q0.31036377 -0.5604248 0.20947266 -1.1522827q-0.093322754 -0.6055298 -0.6859741 -1.3092041q-0.37231445 -0.45648193 -1.800293 -1.7481842q-1.4204102 -1.3053741 -1.8795776 -2.024353q-0.5975342 -0.92071533 -0.6578369 -1.8116302q-0.04663086 -0.8833618 0.40759277 -1.7034912q0.49957275 -0.9021454 1.4367065 -1.401001q0.958374 -0.5049591 2.1481934 -0.36354065q1.2110596 0.13531494 2.4136963 0.80189514q1.3256226 0.73475647 2.102234 1.7190247q0.7766113 0.9842682 0.84783936 2.1134949q0.09246826 1.1231232 -0.44940186 2.198349l-1.5638428 -0.72387695q0.4977417 -1.1890259 0.105041504 -2.1569977q-0.371521 -0.9740753 -1.7380981 -1.7315674q-1.4212646 -0.78778076 -2.3724976 -0.6182709q-0.9436035 0.15582275 -1.352356 0.89393616q-0.35583496 0.6424408 -0.1182251 1.3100586q0.22387695 0.6600342 1.8948975 2.1579132q1.6846924 1.5054474 2.213623 2.2273865q0.77368164 1.0540924 0.8569336 2.064911q0.10443115 1.004715 -0.42547607 1.9615479q-0.5298462 0.9568176 -1.5458374 1.501297q-1.0084229 0.5308075 -2.2907715 0.42744446q-1.2686157 -0.09579468 -2.5396118 -0.8002472q-1.6125488 -0.89382935 -2.4484863 -1.9645538q-0.82836914 -1.0843964 -0.9346924 -2.3759918q-0.09265137 -1.2840271 0.5461426 -2.5020294zm9.338013 10.1779175l6.5856934 -11.891937l1.5852661 0.87867737l-2.7023926 4.8797913l6.177063 3.4238129l2.7024536 -4.8798065l1.5715942 0.871109l-6.5857544 11.891937l-1.5715942 -0.87109375l3.1036377 -5.604248l-6.177063 -3.4238129l-3.1036377 5.604248l-1.5852661 -0.87867737z" fill-rule="nonzero"></path></g></svg>

